<?xml version="1.0" encoding="utf-8"?>
<svg version="1.2" baseProfile="tiny" xmlns="http://www.w3.org/2000/svg" xmlns:xlink="http://www.w3.org/1999/xlink" x="0px" y="0px" width="24px" height="24px" viewBox="0 0 24 24" xml:space="preserve">
<path d="M12,1C5.935,1,1,5.935,1,12s4.935,11,11,11s11-4.935,11-11S18.065,1,12,1z M12,3c4.963,0,9,4.038,9,9c0,0.168-0.016,0.333-0.025,0.499c-1.239-0.005-1.876-0.372-2.549-0.817C17.619,8.993,16.832,6.5,14.999,6.5s-2.62,2.493-3.428,5.183c-0.678,0.448-1.317,0.817-2.574,0.817c-1.255,0-1.895-0.369-2.572-0.817C5.868,9.826,5.319,8.064,4.43,7.15C6.033,4.659,8.824,3,12,3z M20.091,15.916c-0.177-0.233-0.343-0.525-0.499-0.859c0.225,0.15,0.465,0.277,0.734,0.351C20.254,15.581,20.173,15.748,20.091,15.916z M3.909,8.084C4.085,8.317,4.25,8.609,4.407,8.942c-0.225-0.15-0.464-0.276-0.733-0.35C3.746,8.419,3.828,8.252,3.909,8.084z M4.771,10.782c-0.448-0.157-0.978-0.263-1.637-0.276c0.055-0.325,0.125-0.645,0.213-0.957C3.926,9.687,4.374,10.156,4.771,10.782z M8.997,15.5c0.552,0,1.008-0.175,1.409-0.443C10.005,15.911,9.547,16.5,8.997,16.5c-0.55,0-1.007-0.589-1.407-1.442C7.99,15.325,8.446,15.5,8.997,15.5z M7.226,13.218C7.705,13.386,8.272,13.5,8.997,13.5c0.726,0,1.293-0.114,1.773-0.282C10.295,13.965,9.753,14.5,8.997,14.5C8.242,14.5,7.7,13.966,7.226,13.218z M14.999,9.5c0.756,0,1.299,0.535,1.773,1.282c-0.479-0.167-1.048-0.282-1.773-0.282s-1.294,0.115-1.773,0.282C13.7,10.035,14.242,9.5,14.999,9.5z M13.59,8.943c0.4-0.854,0.858-1.443,1.409-1.443s1.009,0.589,1.409,1.443c-0.4-0.269-0.857-0.443-1.409-0.443S13.99,8.675,13.59,8.943z M19.228,13.218c0.448,0.156,0.979,0.263,1.638,0.276c-0.055,0.325-0.125,0.645-0.213,0.957C20.073,14.313,19.625,13.844,19.228,13.218z M12,21c-4.962,0-9-4.037-9-9c0-0.168,0.016-0.333,0.025-0.499c1.238,0.005,1.874,0.372,2.546,0.816C6.379,15.007,7.166,17.5,8.997,17.5c1.833,0,2.62-2.493,3.428-5.183c0.678-0.448,1.316-0.817,2.574-0.817s1.896,0.37,2.574,0.817c0.558,1.857,1.106,3.619,1.996,4.532C17.968,19.342,15.177,21,12,21z"/>
</svg>
