<svg version="1.2" baseProfile="tiny" xmlns="http://www.w3.org/2000/svg" width="200" height="120" viewBox="0 0 200 120"><g fill="#587589"><path d="M185.875 99.688l.104-.338c-.027.003-.061.087-.104.338zM141.246 97.996l-.062.056.062-.056zM189.635 86.502l-.003.019.003.092v-.111zM187.093 104.131c.695-4.622 1.131-5.813 1.67-10.629.331-2.287.6-4.739.869-6.981-.016-.272 0-.593.034-.939l.26-2.004c.19-1.38.4-2.872.435-3.794l.073-.344-.353.167c-.704.652-1.418 1.288-2.014 1.69l.052-.088c-.955.896-1.977 1.66-2.417 2.078l.017-.059-.651.552.073-.125c-.821.795-1.727 1.541-2.556 2.161l.158.058c-.899.63-1.46 1.131-2.001 1.611-.27.24-.534.475-.834.719l-.479.373-.2.102-.015-.009-.002-.036c.044.106-.802-.023-1.262-.111-.523-.102-1.009-.228-1.497-.355-.977-.255-1.961-.515-3.272-.58.327.017-.123-.1-.09-.129-1.184-.184-2.444-.402-2.517-.126-.856-.167-.681-.221-.771-.35-.02.123-.773.032-1.443-.088l.317.011-1.926-.324.332.304c-1.004-.261-.205-.332-1.189-.462l-.024.194c-1.398-.306-2.169-.754-3.503-1.155-1.661-.343-3.369-.643-5.083-.929l-4.771-.783c-.046-.053-.485-.734-.78-1.194l-.936-1.49-1.209-1.988-1.465-2.479-.253-.678c-.077-.321-.422-.725-.725-1.055-.053.907-.089 1.736-.184 1.692l-.083 1.216c-.07.211-.196.778-.155.18-.153.971-.13 1.051-.175 1.79l-.278.965-.181 1.053-.118.808-.185 1.592c-.113 1.062-.223 2.14-.425 3.319-.211.852-.408 1.94-.59 3.132l-.261 1.847c-.073.567-.193 1.484-.169 1.458l-3.257 2.334c-1.683 1.277-3.651 2.417-5.639 3.562-.993.572-1.991 1.146-2.96 1.739-1.057.65-1.591.999-3.441 2.28l.334.867c.05.242.326.845.346.825l1.292 3.908s6.316 18.887 3.141 3.987l.077.081c-.614-2.165-1.045-3.514-1.766-4.906.194-.324-.564-1.758-.646-2.287l.038.04c-.194-.367-.338-.76-.46-1.161-.079-.254-.069-.262-.087-.359l-.029-.218.275-.144.21-.152.313-.255c-.03.047-.012.129-.263.298.787-.555 1.856-1.326 2.008-1.225 1.905-1.291 4.64-2.976 5.729-4.003l-.059.094c.605-.609.897-.615 1.635-1.204l.112-.022c.67-.648 2.224-1.479 2.802-1.945l.102.067c.591-.396 1.183-.79 1.782-1.18l-.004-.031-.004.025-.846.521c.017-.155.317-.345.751-.582l.277-1.163c.077-.338.137-.716.137-1.119.221-1.218-.259-2.575.079-3.823-.052-.627.15.568.177-.354.162-.007.035.438.196.224.058-.9.379-1.435.436-2.547l.13-.026c-.011-1.465.565-2.675.492-3.659.03-.373.077-.617.131-.8.057-.204.093-.167.141-.23.089-.092.144-.071.087-.512.003-.021.164.036.161.058.044-.112-.122-.578-.027-.664l.058.129c.06.151.104.249.098.36.134.367.179.328.334.492l.115.129.151.227.196.311c.261.422.515.876.748 1.379.214.146.442.47.657.784l.316.453c.155.222.293.398.396.491-.002.025.052.131.141.286l.773.17.549.125c.255.068.317.115-.204.098l-.185-.026-.154-.061-.302.067.639.184.433.1c.287.055.57.086.854.112.567.051 1.139.078 1.744.212-.354-.108-.836-.19-.499-.211l1.128.231-.254.057 1.674.381-.209-.17c.813.223 1.062.49 2.027.49.439-.019-.749-.317.129-.19 1.086.296 2.714.739 4.113 1.046-.104-.166.273-.089.669-.043l.021.131c1.526.115.496.373 2.004.521l-.146.06.44-.181c1.384.014.673.392 2.223.345-.592-.092-.226-.322.488-.131l-.206.083c.405.051.548.027.81.103-.25.019-.158.147.434.24l-.423.072 1.154-.005c.836.291 2.228.392 2.548.625 0 0 1.832.435 2.291.333l.302.357c.251-.019.735.014 1.225.081.244.034.489.076.708.126.244.054.336.091.663.189l-.2-.022 1.108.24.956-.771.483-.413.904-.811c.591-.531 1.18-1.046 1.898-1.531-.16-.057.673-.635.362-.619.709-.696 1.468-1.193 2.072-1.629l.422-.316.105-.11c.055-.084.098-.213.168-.454.359-.333.334-.1.428-.139l-.084.107.301-.282c-.022.316-.051.524-.106.866.023.242.32.023.094 1.226-.056-.374-.099.082-.154.498.02-.269-.008-.355-.151.181l.027.315-.028.013c-.057.698-.008.581.05.262l.081-.103c-.232.702-.263 2.008-.453 2.07-.24 2.091-.257 3.605-.421 5.349-.119.183-.146-.233-.114-.742l-.132 1.235c-.132-.028.019-.717.044-1.1l-.624 4.741.058.37-.031.101c.056.002.08.397.063.655-.148.228-.265-.054-.373.798-.202.657-.202 1.919-.259 2.808.084-.472.127-.311.141-.101-.054.427-.202.656-.197.991l-.162.02c.17-.147.009 1.133.052 1.298-.148.227-.011-.673-.083-.791l-.324 2.562c-.005.925.17-.146.248.308-.078.808-.075 1.606-.294 2.516l.178-.273c-.096 1.523-.234 2.425-.512 3.423-.391 11.396 1.222 2.577 1.222 2.577.905-4.388.81-6.728 1.415-12.012z"/></g><g fill="#587589"><path d="M168.76 102.551l-.006-.032.006.032zM167.839 102.343l.014-.013-.014.013zM169.417 102.392l.002.008.047-.017-.049.009zM167.691 100.909l-.003.013.003-.013zM167.49 101.914l-.024-.003.024.003zM170.113 102.807l-.045-.027.045.027zM170.641 102.161l-.009-.007.009.007zM170.288 102.216l-.003.03.003-.03zM170.285 102.263v-.017.017zM170.319 101.341l.012.085-.012-.085zM168.85 99.392l.01.019-.01-.019zM170.603 101.646l-.017.004.017-.004zM169.786 103.139l-.054.066.054-.066zM168.262 97.659l.013-.012-.013.012zM170.603 101.646l.02-.006-.021-.012.001.018zM170.5 98.802h-.001l-.004.008zM170.55 98.882l-.013.01.013-.01zM170.331 101.426l.006.049-.006-.049zM170.914 99.143l-.007-.003.007.003zM167.479 101.98l-.007.011.007-.011zM166.163 101.252h-.001zM166.213 101.321l-.05-.069.05.069zM166.203 101.115l-.006.007.006-.007zM166.289 102.52l.005-.002-.004.001zM166.178 102.234l.014-.025-.014.025zM166.223 100.462l.002.001v-.002zM167.232 98.275c-.159.189-.285.495-.463.655.041.097.005.164-.021.238l-.109-.067-.002.076-.058-.044.052.065c-.04-.022-.117.121-.133-.021l-.141.211.014.117-.053-.05c-.18.116.116.312-.011.435l-.01-.021.007.098.041-.072.101.115-.014.098-.176.125c.021.04.112.109.098.168l-.121.011.057.029-.066.021.012.12-.048-.054-.033.136-.008-.054c-.101.012.021.073.005.09l.106-.003-.017.094-.048-.05.02.126-.032-.012c.068.068-.01.122-.027.2l-.015-.018.063.076.119-.019.037.181-.036-.052c-.102-.042-.191-.057-.233-.123l-.014.071.097.022-.01.056.143.019-.062.033.062.108-.013-.028c-.051.05.012.129-.104.146l-.055-.031.018.001-.081.033c.063-.005.055.077.046.115l.072-.016-.107.123.073.012c-.008.053-.071.081-.031.154l-.14.097c.029.04.007.164.089.172.044-.101-.12-.069-.027-.188l.081.012.065.195.049-.023c.06.085.144.081.151.175-.063.039-.07-.017-.09-.052l.028.158-.08-.047.056.092-.012.006.088.121c.091.135.226.074.34.085l-.055.066-.039-.023c.038.032-.014.156-.064.16l.082-.04.064.095.081-.071.098.086-.075.042c.011.034.048.067.097.037l.13-.066.023.078-.047-.004c-.033.079.06.015.081.021l.044.099.051.08.048-.064.091.049-.083.172.126-.093-.038.172c.011.074.118.109.183.106l-.023-.127c.163.024.216-.156.31-.106l-.022-.023.107-.082c-.034.087.035.246.149.237l-.027-.16.069-.008-.015.032.133.022.064.136-.026-.058.09-.075c.065-.057.091-.021.134.031-.016-.035-.05-.115.001-.136.012.146.115.041.122.116l.061-.024.01.09c-.013-.126.066-.13.121-.16l.121.122.077-.174.087.12.009-.048.186.048.014-.111.032.039-.005-.082.026-.002.054-.101.02.057.062.078c-.025-.02.005-.225-.074-.243l.028-.079.053.087-.017-.11.099.021c-.024.019.018.207.091.169l-.042.12.021.053.049-.106c.034.084.063.102.13.104l-.068-.041-.003-.025-.047-.042.053-.089c-.119-.099.052-.146-.024-.204l.056-.011.106.133-.062-.083.103.037-.004.021.064.014-.052-.086.062-.002.043.163c.024-.023.104-.09.026-.14l.033-.018c-.04-.02-.129-.043-.073-.095l.009.017.007-.087.044.027-.001-.051.059.051.007-.097.06.039.15-.042-.029-.077c.137.103.195-.059.248-.139l-.058-.137c.013.047.134.024.098.107l.028-.043.08.144c.041-.042-.03-.181.053-.186l.076.033-.018.058.021.007c.114-.062-.05-.109-.046-.201.047-.059.097.017.132.047l.037-.062c.007.073-.106.012-.133-.047.102.059.09-.066.073-.11l-.219.017c.014.034.083.106.012.114l-.059-.044-.012.073-.12-.102.08.109-.073-.024-.043-.137c-.132-.038-.047.123-.062.202l-.013-.036-.016.067-.045-.09-.046.044-.007-.006-.031.022-.047-.123.007.116-.072-.083-.068.067-.061-.069.03.034c-.038 0-.03.212-.117.054l-.111.183-.08-.12-.033.11c-.046-.017-.078-.102-.068-.148l-.011.058-.009-.017-.005.061-.09-.071.031.073-.045-.03-.008.069-.008-.016-.022.027-.048-.061-.064.044.031.046-.087-.055.03.057c-.112-.065-.093.111-.171.073l-.005-.076c-.033.048-.114.044-.136.134l-.118-.133-.03.08-.109-.019-.04.048-.01-.025.018.062-.168-.017.007-.018-.021.027-.006-.081-.112.002.027.045-.065.037-.05-.071.022-.028-.026.074-.069-.045h.027l-.028.09-.004-.046-.095.007.002-.082-.1.034.005-.036-.028.041-.021-.078.005.047-.062.007.02-.052-.107-.046.018-.031-.077-.021.02-.052-.031.025.028-.066-.057.094.018-.072-.021.03-.003-.153-.041.083c-.15.104-.064-.164-.157-.151l.055-.048-.079.031.077-.061-.128.037.073-.033c-.046-.006-.118-.028-.1-.067l-.024.012-.029-.09.047-.002-.017-.029.062-.012.006-.068-.082.005-.007-.088.034.017-.058-.04.044-.002-.066-.075.057-.075-.062-.012.045-.032.01.004-.008-.026.071.019-.136-.048.081-.064.017.011c-.019-.071.207-.082.093-.147l.026.009.009-.037.051.019-.072-.08.035.009.04-.172.014.013.026-.106.014.01.01-.041.031.021c-.066-.059.121-.048.054-.054l-.086-.096.09-.008.016-.091.032.017-.005-.077.011.017-.001-.118.095-.016.018-.201.08-.012-.055-.032.271-.174.052.037-.041-.059c.097-.062.207-.15.264-.216-.004-.042-.035-.135.019-.146l.003.009c.034-.077.082-.154.172-.185l.036.052.051-.047-.048-.021c-.02-.063.045-.043.083-.015l-.014-.079.021.016-.016-.031.067.053-.01-.141.048.046.132-.057-.035-.012c-.038-.051-.025-.108.01-.097l.084.108-.056-.072.055-.079.001.029.109.025-.021-.123.067.057c-.009-.053.06-.048.093-.002l.069-.118.062.055-.024-.135.082.114-.039-.13.497.002c.052-.036.117-.102.188-.094l-.006.019.07.026-.054-.054.039-.046c.09.033.147.139.235.065l.068.033-.018.047.146-.123-.008.077.029-.056-.014.092.047-.058-.03.057c.008.019.071.003-.001.107.111-.074.105.042.133.075l.066.018-.066.046.082.021-.02.004.065.034-.107.059c.124-.019-.018.053-.018.051 0 0-.006.268-.18.712-.15.435-.432.924-.355 1.343l.098.157-.058.029.192.143-.011.036.046-.007-.077-.089.092.019c-.016-.051-.121-.171-.032-.168l-.005.017.096.034-.008.008.071.008c-.05-.003-.015.101-.002.075l-.012-.051.081.048.03-.041.031.045-.002-.086.114-.033.067.06.07-.092.02.031.006-.056.119-.016.008-.126.043.062.026-.075.039.081c.171-.136.504-.076.532-.305l.058.08c-.01-.178.224-.13.276-.259l-.048-.024c.245-.097.219-.368.35-.562l-.044.016-.046-.132c.027.001.104.054.101-.015l-.073.016c.178-.157.238-.581.261-.959-.029-.474-.197-1.124-.615-1.541.058.065-.063.127-.08.058.019-.281-.259-.16-.317-.389-.298-.126-.53-.374-.849-.285l.006-.063-.098.011.004-.018-.282-.016-.008.072-.09-.021.003-.035-.071.063c.002-.133-.158-.005-.202-.055-.07.03-.196.1-.305.089-.027-.059-.166-.049-.248-.056-.147.06-.354.144-.551.184l.033.075-.046.022-.012-.035-.15.039.062-.015c.052.019.047.108-.018.094l-.006-.017-.017.055-.103-.125c-.144.085-.191.231-.354.278-.022-.071-.09.08-.125-.045l.072.177-.058.021-.045-.074-.05.045-.006-.038-.304.192.066.024-.187.114-.021-.063c-.001.058.021.108-.056.108l.002-.125c-.033.024-.1.107-.034.138l-.109.015.066.052c-.077.012-.153.081-.219.131l-.035-.042-.142.068zM166.294 102.562l-.005-.042-.055.004.06.038zM166.182 100.856l-.016-.015.016.015zM166.169 100.455l.054.007-.054-.007zM167.142 103.202l-.024.021.024-.021zM169.554 103.249l-.013-.007.013.007zM169.396 103.197l-.021.019.021-.019zM166.628 102.767l-.036-.011.036.011zM169.355 103.239l-.033.002.004.014zM169.595 103.239l-.041.01.041-.01zM168.066 103.387l-.003.002.003-.002zM169.26 103.399l-.005-.002-.003.023zM169.732 103.205l-.009.019.021-.001-.012-.018zM168.578 103.483l.006-.06-.006.06z"/></g><g fill="#587589"><path d="M157.094 98.408l-.007-.031.007.031zM156.547 98.236l.011-.014-.011.014zM157.563 98.31l.002.008.034-.011-.036.003zM156.604 97.45l-.002.008.002-.008zM156.384 97.979l-.022.004.022-.004zM158.173 98.768l-.04-.03.04.03zM158.529 98.247l-.008-.008.008.008zM158.238 98.249l.001.026-.001-.026zM158.241 98.29l-.002-.015.002.015zM158.138 97.494l.021.072-.021-.072zM157.405 96.438l.01.017-.01-.017zM158.425 97.794l-.014.001.014-.001zM157.948 99.049l-.034.058.034-.058zM156.684 94.793l.01-.009-.01.009zM158.425 97.794l.017-.002-.02-.013.003.015zM158.387 96.022l-.002.008zM158.382 96.098l-.006.015.006-.015zM158.159 97.566l.013.042-.013-.042zM158.508 96.131h-.006.006zM156.367 98.017l-.008.009.008-.009zM155.111 97.563v-.001h-.001zM155.161 97.62l-.05-.057.05.057zM155.151 97.459l-.007.005.007-.005zM155.193 98.621l.005-.003-.005.002zM155.102 98.391l.013-.022-.013.022zM155.152 96.949l.002.001v-.001zM155.879 95.243c-.117.15-.197.397-.338.515.048.088.021.139.005.198l-.107-.07.006.064-.058-.044.055.062c-.04-.024-.097.087-.125-.034l-.109.161.023.1-.054-.048c-.161.074.134.27.022.354l-.01-.018.013.08.034-.054.105.104-.007.077-.156.082.101.142-.118-.004.057.029-.063.01.017.096-.049-.047-.026.105-.011-.044.009.071.104.007-.012.072-.05-.043.025.101-.031-.012c.063.055-.012.094-.029.153l-.015-.016.064.064.117-.007.038.142-.036-.042c-.102-.038-.19-.055-.232-.11l-.014.056.097.023-.01.042.142.023-.061.022.062.089-.014-.022c-.046.038.005.1-.109.114l-.054-.029.018.002-.081.026c.063-.002.055.068.045.102l.072-.014-.107.108.072.009-.035.136-.14.093c.027.038-.008.142.078.142.041-.088-.115-.046-.018-.16l.079.007.053.158.048-.022.137.13-.082-.034.018.131-.072-.033.047.073-.011.006.07.096c.072.103.198.035.299.031l-.056.062-.032-.016c.03.023-.029.137-.075.146l.077-.044.046.075.08-.071.076.064-.071.046.08.021.12-.074.011.067-.039.002.066.01.024.085.033.069.048-.063.072.035-.088.166.115-.095-.049.165c.002.069.09.1.144.095l-.008-.122c.134.018.188-.156.264-.121l-.018-.021.094-.085c-.033.086.02.239.118.229l-.021-.157.057-.009-.012.032.109.021.057.134-.023-.057.069-.08c.049-.057.07-.021.106.032-.014-.035-.045-.116-.008-.136.018.145.092.042.102.116l.045-.023.014.089c-.019-.125.042-.128.082-.157l.102.12.045-.167.078.122.003-.047.15.057-.001-.108.029.04-.013-.08.021-.001.03-.097.021.057.057.079c-.022-.021-.021-.214-.085-.239l.013-.072.052.087-.025-.105.08.028c-.017.016.038.198.093.168l-.021.111.023.051.026-.097c.038.082.062.103.117.11l-.06-.045-.006-.024-.042-.044.032-.08c-.107-.104.022-.134-.045-.194l.043-.007.103.135-.061-.083.087.043v.02l.053.017-.053-.085.051.005.055.155c.017-.02.076-.071.005-.126l.025-.013c-.035-.022-.111-.054-.072-.096l.01.016-.005-.079.039.03-.007-.047.054.054-.007-.089.055.043.119-.022-.034-.074c.127.108.153-.033.189-.096l-.067-.129.098.107.019-.035.086.138.022-.158.069.039-.008.05.02.008c.09-.041-.057-.104-.066-.185.033-.045.086.027.12.059l.024-.051c.015.066-.091-.002-.121-.057.096.064.068-.049.048-.089l-.186-.013c.017.032.086.104.025.104l-.056-.047v.063l-.116-.105.083.107-.065-.032-.055-.126c-.117-.051-.023.103-.025.171l-.016-.034-.004.059-.051-.086-.032.033-.007-.007-.023.016-.056-.115.022.104-.071-.083-.046.054-.06-.07.029.035c-.03-.005.005.188-.087.034l-.065.153-.081-.12-.012.098c-.039-.021-.076-.104-.074-.146l-.001.052-.009-.016.006.058-.081-.076.035.072-.039-.033.004.064-.009-.016-.014.023-.045-.062-.044.035.031.046-.074-.06.03.056-.122.052-.013-.072-.084.121-.102-.137-.014.075-.081-.025-.023.044-.01-.025.019.061-.12-.018.004-.018-.012.026-.011-.08-.076-.001.021.045-.042.035-.037-.072.013-.027-.013.073-.047-.046h.018l-.015.091-.005-.046-.055.016.002-.082-.056.04.005-.036-.018.042-.005-.077-.002.047-.035.009.017-.052-.058-.028.016-.032-.044-.007.021-.053-.024.029.031-.067-.054.097.026-.071-.02.031.035-.14-.047.082c-.144.135-.006-.132-.084-.091l.056-.051-.075.046.079-.064-.118.061.07-.043-.063-.029-.024.013-.019-.044.045-.012-.012-.013.061-.02.02-.037-.079.018.007-.042.033.002-.057-.009.044-.005-.062-.026.062-.032-.062-.005.049-.013.008.002-.002-.016.068.014-.135-.033.079-.033.016.008.088-.084.025.008.008-.022.051.018-.07-.059.034.009.023-.111.015.011.017-.069.014.009.006-.026.031.019.049-.029-.092-.081.083.007.003-.063.032.017-.014-.057.013.014-.015-.087.086.004-.012-.152.07.003-.054-.034.217-.092.052.038-.046-.054.192-.133-.008-.119.004.009c.016-.062.042-.12.111-.133l.038.051.033-.032-.042-.026.065.001-.023-.071.021.018-.018-.029.062.056-.031-.125.046.047.093-.032-.029-.016-.008-.085.083.109-.055-.073.029-.063.006.027.088.038-.034-.114.061.062c-.017-.054.036-.039.066.007l.033-.102.054.059-.038-.129.076.117-.047-.127.341.048.104-.088-.003.018.039.03-.031-.057.019-.043.075.05.01.025-.015.05.086-.152-.026.074.03-.057-.039.09.045-.067-.033.058-.035.079.057-.001.06-.019-.069.037.07-.016-.019.007h.049l-.113.034-.018.009-.044.038-.109.3c-.1.274-.263.617-.135.982l.106.147-.046.015.186.15-.005.028.039.001-.078-.086.082.029c-.021-.046-.128-.162-.051-.146l-.002.014.088.042-.006.006.063.017.009.063-.018-.045.078.052.021-.03.033.043-.013-.073.096-.013.068.06.05-.068.021.029-.002-.046.106.005-.007-.104.046.058.016-.06.045.072c.143-.086.45-.002.462-.181l.062.072c-.024-.146.202-.079.242-.178l-.048-.025c.223-.053.191-.268.31-.412l-.043.009-.051-.108.099-.003-.071.006c.174-.109.23-.427.259-.775-.019-.456-.177-.952-.484-1.292.044.053-.07.12-.077.06.043-.249-.215-.109-.237-.314-.242-.079-.42-.332-.704-.228l.009-.062-.091.014.004-.018-.26-.013-.007.071-.082-.021.002-.036-.062.062c-.003-.13-.13.003-.172-.05-.057.03-.151.1-.239.088-.027-.061-.136-.045-.2-.055-.113.053-.271.126-.426.157l.034.074-.032.021-.013-.034-.118.025.049-.009c.044.022.05.107-.004.089l-.007-.018-.008.052-.097-.127c-.108.071-.133.204-.258.239l-.109-.055.081.172-.045.014-.047-.073-.036.036-.01-.035-.231.147.059.029-.143.086-.025-.06c.006.051.03.1-.035.091l-.013-.112c-.026.019-.074.085-.014.12h-.093l.063.055-.173.091-.036-.04-.11.037zM155.195 98.656l-.002-.035-.052.008.054.027zM155.131 97.257l-.017-.013.017.013zM155.1 96.938l.053.011-.053-.011zM155.875 99.12l-.023.022.023-.022zM157.775 99.134l-.011-.007.011.007zM157.644 99.072l-.014.018.014-.018zM155.479 98.792l-.031-.005.031.005zM157.618 99.112h-.026l.005.014zM157.807 99.129l-.031.005.031-.005zM156.625 99.238l-.003.002.003-.002zM157.56 99.263l-.004-.001-.001.02zM157.914 99.106l-.006.018.017.001-.011-.019zM157.036 99.328l.001-.06-.001.06z"/></g><g fill="#587589"><path d="M138.261 98.413l.03-.013-.03.013zM138.309 98.012l.017-.003-.017.003zM138.267 98.638l-.008.003.001.015zM138.218 97.245l.003.004-.003-.004zM138.256 97.707l-.023.004.023-.004zM137.67 99.031l.041-.025-.041.025zM137.933 99.142l.009-.005-.009.005zM138.072 98.987l-.021.003.021-.003zM138.039 98.993l.012-.003-.012.003zM136.892 94.916l-.064.012.064-.012zM137.966 96.629l.019-.008-.019.008zM136.513 95.081l.007-.008-.007.008zM137.508 98.983l-.04-.002.04.002zM136.306 97.234l-.004-.002.004.002zM136.513 95.081l-.009.01.021-.012-.012.002zM137.695 95.99l.008-.002zM137.749 95.925l.017.001-.017-.001zM136.827 94.928l-.037.006.037-.006zM137.521 95.594h.007-.007zM138.242 97.744l-.008.007.008-.007zM136.999 98.013h-.001zM137.058 98.002l-.059.011.059-.011zM137.008 97.974l-.005.004.005-.004zM137.046 98.28l.005-.002-.004.001zM137.015 98.23l.018-.013-.018.013zM136.827 97.897l.002-.001h-.001zM136.285 97.542c.048.038.164.063.162.125l.129-.008-.115.055.043-.004-.065.029.074-.028-.105.062.023.052.076-.012-.066.026.208-.001-.017.005.052-.003-.002-.02.134-.046.035.008-.077.083.144-.035-.098.058.058-.024-.048.032.053.004-.06.018.021.025-.026-.001.036.005.089-.049.02.016-.059.018.061.002-.031.014.021.04-.017.004.072-.018.102-.055.07.013-.043.007-.232.084.001.017.089-.04.002.013.131-.059-.048.031.077-.008h-.018l-.078.073-.051.016.017-.008-.073.042.044.006.065-.033-.096.07.066-.026-.029.048-.13.075.054.014.004-.041.074-.028.023.033.048-.023.096.004-.068.013-.013.04-.06.011.027.011-.012.006.032.016c.011.028.144-.028.228-.049l-.073.038h-.02l-.128.076.083-.033.003.022.099-.044.012.024-.075.028.035.005.125-.044-.039.033-.026.003.035.001-.043.04-.026.031.074-.032.003.023-.174.079.126-.041-.156.078-.02.052.097-.057.197-.028.016-.014.093-.02c-.083.034-.212.116-.186.13l.14-.074.019.009-.031.012.001.032-.113.067.049-.028.077-.012-.029.048.123-.054-.106.077.021.007-.083.037.145-.028-.121.08.144-.035-.122.07.042-.014-.075.077.098-.032-.041.023.075-.028-.003.008.08-.014-.055.024-.085.047.231-.101.06-.011-.09.045.1-.037-.047.045c-.009-.005-.184.064-.173.082l-.091.019-.052.023.076-.013-.129.079.056-.037.023-.009.051-.029.061-.005.183-.064-.006.019-.148.076.091-.046-.063.049-.017.004-.032.028.091-.042-.023.025-.149.057.102-.021.001.01.107-.053-.017.008.067-.017-.04.024.041-.012-.065.036.076-.019-.057.034-.028.054.075-.028c-.139.077-.036.069-.009.083l.133-.049-.131.062.018.006-.148.06.111-.007-.064.039-.035.002-.016.011.176-.053-.105.065.027.007.104-.065.046.016.102-.096-.093.022.064-.032-.05.006.139-.071-.124.054.057-.037.125-.04c.097-.067-.069-.004-.12.002l.033-.012-.043.005.091-.036-.01-.015.009-.004-.002-.011.117-.042-.094.022.099-.048-.027-.017.082-.04-.041.021.004-.041-.105-.012.132-.062-.077.009.148-.062-.042.007.017-.008-.051.013.089-.056-.074.031.04-.026-.06.015.017-.007-.018-.003.066-.035-.02-.017-.05.025.072-.051-.058.027-.015-.054.067-.022-.098-.014.138-.087-.068.013.032-.049h-.037l.024-.013-.058.027.019-.064.018-.005-.026.003.074-.031-.004-.039-.041.026-.035-.008.064-.046.025-.003-.067.02.039-.043.001.01-.084.027.041-.021-.028-.022.074-.035-.054-.014.033-.015-.043.01.065-.042-.041.023-.02-.016.05-.02-.006-.049.034-.012-.021-.028.05-.023-.035.007.066-.029-.1.037.065-.036-.033.012.11-.091-.082.04c-.186.049.065-.113-.03-.113l.065-.029-.084.021.091-.039-.127.027.075-.025-.057-.041-.024.011-.022-.038.045-.013-.013-.012.059-.021.013-.043-.075.024-.005-.042.034-.005-.061.005.041-.018-.069-.006.045-.055-.058.021.039-.033.009-.002-.01-.008.067-.022-.135.042.055-.053.017-.005.042-.087.025-.01-.002-.017.05-.019-.085.011.033-.015-.041-.054.017-.004-.021-.035.015-.005-.008-.014.033-.012.021-.039-.117.032.063-.046-.036-.018.032-.015-.044-.006.018-.005-.062-.012.063-.052-.114-.017.047-.041-.058.027.07-.145.058-.027-.066.022.003-.128h-.097l.009-.003-.06-.065.059-.024-.012-.021-.04.026.03-.041-.068.017.023-.013-.031.012.073-.042-.119.026.058-.031.003-.055-.024.02-.077.012.124-.06-.082.04-.045-.013.024-.006.063-.06-.109.033.073-.044.021-.043-.088-.005.064-.043-.125.044.123-.066-.125.05.078-.23-.102-.049.018-.004.021-.042-.047.045h-.043c.037-.053.081-.12.003-.128l.005-.048.049-.018-.182.009.063-.046-.058.024.08-.057-.075.022.058-.028c-.002-.016-.063-.024.051-.086-.104.005-.103-.062-.101-.116l-.069-.004.064-.042-.078-.001.019-.007-.055-.012.096-.066.006-.032s.013-.711-.677-.567l-.166.061.014-.027-.213.109-.018-.003-.023.022.107-.046-.068.047.135-.029-.008-.001-.081.05-.001-.003-.048.035-.051.006.042-.011-.082.043.01.012-.05.019.06-.008-.046.052-.083.037.021.024-.033.012.034-.001-.071.058.069-.001-.066.023.027.01-.076.022c-.042.08-.294.229-.206.244l-.084.027c.096-.003-.108.107-.089.133l.05-.022c-.135.11-.021.116-.064.19l.031-.021.086-.011-.081.047.057-.034c-.11.098-.042.165-.075.257l.093.276.091-.039-.072.122c.088.019-.07.145.108.118l-.058.027.026.007-.016.007.03.043.066-.029-.007.021-.032.015.067-.017-.045.064.073.036-.068.084.064.105.074-.035.009.008-.033.015-.012.044.007-.019.075-.021-.017.007.043-.011-.14.074.127.05-.088.062.174-.072-.007.019-.079.036.015.01-.033.012.026.077.049-.032.006.053-.059.021.053.005-.093.022.085-.011-.047.045.074-.038-.019.071-.049.022-.026.059zM137.039 98.292l.007-.012-.05.019.043-.007zM136.932 97.947l-.019.006.019-.006zM136.779 97.922l.048-.024-.048.024zM137.298 98.396l-.029.012.029-.012zM137.483 98.927l.009-.007-.009.007zM137.574 98.851l-.012-.001.012.001zM137.218 98.283l-.023.004.023-.004zM137.545 98.851l.004-.011-.014.006zM137.479 98.939l.004-.013-.004.013zM137.469 98.544h-.002.002zM137.417 98.871l.003-.002-.02.006zM137.468 98.981l-.014.002-.006.008.02-.01zM137.415 98.697l.055-.022-.055.022z"/></g><g fill="#587589"><path d="M135.193 100.292l.028-.016-.028.016zM135.181 99.865l.016-.005-.016.005zM135.232 100.529l-.007.003.003.017.004-.02zM134.973 99.063l.004.004-.004-.004zM135.081 99.548l-.023.007.023-.007zM134.688 100.995l.038-.03-.038.03zM134.971 101.089l.009-.006-.009.006zM135.089 100.914l-.021.006.021-.006zM135.056 100.923l.012-.003-.012.003zM133.281 96.72l-.063.019.063-.019zM134.625 98.435l.018-.009-.018.009zM132.923 96.928l.006-.01-.006.01zM134.518 100.958l-.041.002.041-.002zM133.039 99.217l-.004-.003.004.003zM132.923 96.928l-.007.01.02-.014-.013.004zM134.256 97.784v.001l.008-.003zM134.3 97.712l.018-.001-.018.001zM133.218 96.738l-.037.01.037-.01zM134.02 97.381h.008-.008zM135.073 99.588l-.007.009.007-.009zM133.857 99.978l-.001.001zM133.915 99.961l-.058.017.058-.017zM133.86 99.937l-.004.005.004-.005zM133.945 100.256l.004-.002-.004.002zM133.906 100.206l.016-.015-.016.015zM133.666 99.871l.002-.001h-.001zM133.064 99.542c.055.037.176.054.183.118l.13-.02-.108.068.043-.008-.062.036.071-.036-.098.075.031.053.076-.02-.063.033.211-.018-.017.006.052-.008-.005-.021.128-.06.037.006-.065.094.14-.05-.091.069.056-.03-.044.038.054-.001-.058.024.024.024-.026.002.037.002.083-.059.021.015-.057.023.062-.003-.029.017.026.04-.017.006.071-.024.094-.067.073.008-.042.011-.223.108.004.018.086-.049.005.013.123-.072-.044.037.077-.016-.018.002-.068.084-.049.021.016-.009-.067.05.045.003.062-.041-.086.083.063-.033-.022.052-.12.091.056.01-.002-.044.071-.036.028.033.044-.028.098-.005-.066.02-.007.044-.059.017.028.009-.011.007.035.014c.016.028.141-.042.224-.07l-.069.046-.02.002-.118.092.079-.043.006.023.094-.055.015.024-.07.036.036.002.119-.057-.035.038-.025.006.036-.002-.037.046-.023.035.071-.04.006.024-.163.098.12-.054-.146.097-.013.056.09-.068.194-.046.015-.017.091-.028c-.079.043-.197.141-.168.152l.13-.09.02.008-.03.015.007.034-.104.081.045-.034.076-.02-.022.053.117-.067-.097.092.022.005-.077.046.141-.042-.109.095.14-.049-.113.084.04-.018-.064.088.095-.043-.038.028.071-.036-.002.009.079-.021-.052.03-.078.057.219-.125.059-.018-.084.056.095-.048-.041.052c-.01-.004-.176.084-.162.102l-.089.026-.049.029.075-.019-.118.094.051-.044.021-.011.047-.036.061-.01.176-.084-.004.02-.138.093.084-.056-.057.058-.017.006-.027.032.085-.053-.02.029-.143.072.1-.031.003.011.1-.065-.016.01.065-.023-.036.029.04-.016-.061.044.073-.026-.052.041-.021.06.071-.037c-.128.094-.025.076.005.088l.126-.062-.123.076.02.005-.143.075.112-.017-.06.047-.035.005-.015.013.17-.071-.096.079.028.005.096-.079.049.014.088-.109-.09.031.06-.04-.05.011.13-.087-.117.067.052-.044.121-.054c.087-.079-.071.003-.122.013l.032-.015-.044.008.088-.046-.013-.014.008-.006-.003-.011.111-.055-.091.032.093-.059-.03-.015.076-.05-.038.024-.002-.044-.108-.003.124-.076-.077.016.142-.08-.042.012.016-.01-.05.018.082-.065-.07.039.036-.031-.058.021.016-.01-.019-.001.062-.043-.023-.015-.046.03.065-.06-.054.033-.023-.055.064-.03-.1-.006.125-.104-.066.02.025-.055-.038.004.022-.016-.054.034.009-.07.017-.006-.025.005.07-.039-.011-.041-.037.031-.036-.006.058-.054.025-.005-.065.026.033-.049.002.011-.08.035.038-.024-.032-.022.069-.043-.056-.01.031-.019-.042.015.06-.051-.038.028-.021-.015.048-.024-.014-.051.032-.015-.025-.028.048-.029-.034.01.062-.037-.095.049.061-.044-.031.015.098-.105-.077.05c-.18.067.049-.125-.048-.117l.062-.036-.082.028.086-.049-.124.04.072-.033-.063-.038-.023.013-.028-.038.043-.017-.015-.012.057-.027.006-.047-.072.033-.012-.045.034-.008-.06.01.039-.021-.072-.001.038-.062-.056.027.035-.038.008-.003-.011-.008.064-.03-.13.057.048-.061.017-.006.028-.096.024-.013-.005-.017.048-.024-.085.019.031-.019-.049-.053.017-.006-.027-.035.014-.007-.01-.014.032-.015.016-.043-.114.044.058-.054-.039-.016.03-.019-.045-.003.017-.006-.064-.007.056-.061-.118-.007.042-.048-.054.033.048-.158.055-.034-.063.03-.017-.136-.097.008.008-.003-.07-.064.056-.03-.015-.021-.037.032.024-.046-.066.023.021-.017-.03.016.068-.05-.116.037.054-.037-.006-.058-.021.022-.076.019.116-.074-.077.05-.047-.01.024-.008.055-.068-.105.045.066-.054.016-.046-.089.001.059-.05-.12.057.114-.081-.118.064.044-.25-.109-.044.017-.006.015-.046-.041.052-.044.004c.03-.059.064-.134-.016-.135l-.003-.052.047-.021-.182.024.058-.054-.055.03.072-.066-.073.029.054-.034c-.004-.017-.067-.021.039-.095-.104.014-.113-.057-.119-.114l-.071.002.06-.05-.079.005.017-.009-.057-.007.087-.079.001-.033s-.095-.752-.77-.542l-.159.079.011-.03-.199.133-.019-.001-.02.026.102-.059-.062.056.132-.042-.009-.001-.074.06-.001-.003-.044.041-.051.011.041-.015-.076.053.012.011-.047.024.059-.014-.039.059-.077.046.023.024-.032.016.035-.005-.063.066.07-.006-.064.03.029.008-.073.029c-.031.09-.263.268-.171.276l-.081.036c.096-.012-.094.122-.069.147l.046-.028c-.119.128-.004.125-.036.207l.029-.025.084-.019-.074.056.052-.04c-.097.111-.017.177-.037.276l.136.284.086-.049-.056.135c.093.012-.049.158.128.114l-.054.034.027.005-.015.01.037.042.062-.036-.003.023-.031.018.065-.022-.035.071.08.032-.057.094.08.105.07-.043.011.008-.031.019-.006.046.004-.02.072-.029-.016.009.042-.015-.129.091.136.041-.08.072.164-.091-.004.021-.074.045.017.009-.032.015.038.08.045-.038.014.055-.056.026h.054l-.091.032.085-.019-.041.051.069-.046-.008.077-.047.027-.028.063zM133.939 100.269l.006-.013-.048.023.042-.01zM133.779 99.915l-.018.008.018-.008zM133.622 99.9l.044-.029-.044.029zM134.218 100.356l-.028.015.028-.015zM134.484 100.9l.008-.008-.008.008zM134.564 100.812h-.012.012zM134.119 100.245l-.023.006.023-.006zM134.535 100.814l.002-.01-.012.007zM134.482 100.914l.002-.014-.002.014zM134.411 100.498h-.002.002zM134.409 100.848l.002-.002-.018.008zM134.477 100.96l-.014.004-.004.008.018-.012zM134.381 100.664l.052-.027-.052.027z"/></g><g fill="#587589"><path d="M130.834 108.796l-.016-.028.016.028zM130.305 108.87l-.003-.017.003.017zM131.133 108.72l.003.007.021-.006-.024-.001zM129.285 109.209l.005-.004-.005.004zM129.898 109.023l.005.023-.005-.023zM131.631 109.243l-.031-.036.031.036zM131.787 108.924l-.007-.009.007.009zM131.588 108.82l.004.022-.004-.022zM131.595 108.855l-.003-.013.003.013zM126.146 111.38l.014.066-.014-.066zM128.458 109.677l-.009-.019.009.019zM126.352 111.739l-.01-.005.01.005zM131.562 109.435l-.004.044.004-.044zM129.197 111.288l-.004.005.004-.005zM126.352 111.739l.013.006-.015-.019.002.013zM127.602 110.17l-.002-.008zM127.518 110.133l.002-.019-.002.019zM126.16 111.446l.007.038-.007-.038zM127.069 110.483l.001-.008-.001.008zM129.947 109.026l.009.006-.009-.006zM130.255 110.291l.001.001zM130.243 110.231l.012.06-.012-.06zM130.204 110.294l.005.004-.005-.004zM130.611 110.156l-.003-.004.003.004zM130.544 110.206l-.016-.015.016.015zM130.096 110.514l-.001-.002v.001zM129.604 111.214c.053-.064.091-.198.172-.215l-.006-.138.068.107-.003-.046.036.062-.034-.071.079.095.069-.041-.014-.08.032.063.008-.226.005.018-.001-.056-.026.009-.056-.131.012-.041.106.058-.04-.145.072.088-.03-.056.041.042.007-.058.021.059.034-.03-.002.028.008-.04-.061-.082.021-.025.021.059.005-.067.017.03.054-.034.005.017-.021-.073-.069-.093.021-.08.007.043.102.228.022-.007-.048-.087.017-.007-.072-.124.04.043-.009-.081.001.019.093.062.02.05-.01-.016.053.066.01-.05-.041-.061.089.082-.032-.064.062.017.095.118.021-.062-.054.009-.035-.072.045-.035-.029-.045.009-.104.015.069.053.001.012.061.016-.032.006.012.023-.04c.037-.021-.032-.147-.056-.232l.048.067-.002.021.097.115-.041-.08.03-.01-.055-.094.032-.02.034.072.008-.04-.053-.122.042.033.003.026.003-.038.052.034.04.02-.039-.071.03-.01.098.163-.049-.123.098.145.068.005-.072-.088-.029-.204-.018-.013-.022-.096c.042.08.146.194.164.161l-.093-.128.013-.022.014.03.044-.012.085.102-.036-.044-.013-.08.062.018-.065-.118.099.092.01-.025.046.078c-.064-.109-.038-.118-.032-.147l.101.106-.04-.145.088.11-.017-.041.1.058-.039-.097.029.037-.034-.072.011.001-.016-.083.03.052.059.077-.123-.22-.013-.062.057.084-.046-.097.058.037c-.007.011.079.179.103.161l.021.094.028.049-.013-.08.1.116-.048-.049-.01-.022-.037-.046-.004-.064-.079-.179.024.002.096.136-.058-.084.062.054.005.018.036.025-.053-.085.033.017.069.145-.024-.104.013-.004-.065-.1.009.016-.019-.068.031.036-.015-.041.046.06-.021-.077.043.052.07.014-.035-.073c.098.127.09.018.109-.017l-.061-.129.078.123.008-.021.073.144-.005-.119.05.058.001.037.014.015-.063-.175.083.094.01-.031c.018.06-.058-.037-.083-.094.068.089.039-.013.022-.055l-.122-.08.026.094-.041-.06.006.053-.088-.129.066.117-.048-.05-.049-.123c-.085-.084-.007.077-.001.131l-.015-.033.004.046-.044-.088-.02.016-.005-.008-.015.005-.051-.113.026.094-.06-.093-.022.036-.05-.077.024.038c-.022-.011.032.167-.055.009l-.019.118-.078-.123.009.081-.078-.143.008.044-.009-.016.015.052-.07-.079.039.07-.033-.035.017.06-.01-.016-.003.021-.045-.062-.022.027.032.045-.065-.062.034.054-.071.033-.028-.065-.021.109-.11-.122.015.07-.064-.02-.001.04-.016-.022.034.054-.086.001-.005-.018.004.027-.039-.071-.053.018.034.035-.013.041-.058-.055-.003-.027.023.067-.056-.029.013-.004.033.082-.025-.038-.031.038-.044-.069-.021.062-.018-.031.012.043-.054-.057.029.037-.021.025-.023-.049-.064.022-.014-.033-.039.031-.029-.047.007.036-.036-.062.046.097-.045-.06.014.032-.116-.092.05.076c.058.187-.147-.035-.151.068l-.036-.062.023.084-.048-.086.032.129-.03-.073-.058.074.014.023-.052.036-.015-.045-.017.018-.025-.057h-.058l.03.074-.056.019-.006-.036.004.064-.021-.04-.012.078-.07-.032.025.057-.043-.032-.002-.009-.011.013-.027-.065.051.132-.068-.042-.005-.018-.114-.018-.012-.024-.021.008-.023-.049.011.09-.018-.031-.073.061-.005-.017-.047.034-.006-.015-.019.013-.014-.032-.051-.011.038.117-.059-.055-.025.045-.019-.031-.009.05-.005-.017-.019.07-.066-.052-.025.129-.054-.038.034.054-.188-.03-.034-.054.027.064-.17.037-.004.104-.003-.009c-.014.051-.034.095-.09.086l-.029-.056-.028.019.034.035-.054-.02.02.068-.017-.021.015.03-.052-.066.029.12-.039-.052-.071.014.024.02.013.08-.075-.115.05.077-.018.053-.008-.025-.075-.051.04.108-.057-.065-.055-.01-.012.097-.054-.057.054.122-.084-.112.062.12-.303-.013-.069.125-.005-.018-.055-.009.058.037-.001.047c-.068-.024-.156-.051-.17.036l-.063.01-.021-.047.005.194-.059-.056.03.056-.072-.069.026.075-.034-.055c-.021.008-.035.077-.112-.027.003.11-.087.131-.158.146l-.007.076-.055-.057-.004.085-.009-.018-.017.063-.085-.084-.042.005s-.942.209-.779.912l.074.161-.035-.007.137.197-.004.02.028.019-.057-.102.06.059c-.015-.044-.091-.184-.033-.137l-.003.01.063.071-.004.002.045.042.005.053-.012-.042.055.075.015-.015.023.048-.009-.062.066.033.046.078.034-.029.015.032-.001-.037.073.06.003-.075.027.065.015-.033.025.075c.106.021.293.248.317.147l.032.082c0-.102.138.085.172.056l-.027-.047c.141.111.153-.014.25.01l-.027-.027-.011-.09.059.073-.043-.051c.125.09.217-.007.338.001l.369-.188-.048-.086c.153.173.042-.069.158.041.029-.103.189.03.161-.155l.034.054.01-.031.01.016.058-.047-.036-.062h.028l.018.031-.019-.068.084.028.05-.091.108.048.143-.103-.044-.069.011-.013.019.031.057-.001-.024-.001-.025-.075.009.016-.012-.043.093.128.071-.153.078.076-.09-.166.024.002.045.074.014-.02.014.032.104-.052-.04-.043.069-.023.025.058.008-.059.026.094-.012-.09.058.037-.047-.068.094-.003.027.047.068.019zM130.627 110.16l-.016-.004.022.048-.006-.044zM130.166 110.385l.007.019-.007-.019zM130.126 110.558l-.03-.044.03.044zM130.774 109.847l.014.028-.014-.028zM131.485 109.479l-.009-.008.009.008zM131.388 109.404l-.002.014.002-.014zM130.622 109.969l.005.024-.005-.024zM131.387 109.437l-.014-.001.007.011zM131.502 109.479l-.017-.001.017.001zM130.977 109.615v.002-.002zM131.409 109.568l-.003-.002.008.019zM131.558 109.479l.002.015.01.004-.012-.019zM131.179 109.625l-.027-.053.027.053z"/></g><g fill="#587589"><path d="M132.12 112.107l-.023-.023.023.023zM131.706 112.229l-.009-.015.009.015zM132.342 112.009l.005.005.015-.007zM130.974 112.638l.003-.004-.003.004zM131.42 112.408l.012.021-.012-.021zM132.93 112.418l-.039-.029.039.029zM132.952 112.119l-.008-.007.008.007zM132.753 112.049l.01.02-.01-.02zM132.77 112.079l-.007-.011.007.011zM129.097 114.888l.033.058-.033-.058zM130.444 113.138l-.013-.015.013.015zM129.387 115.184l-.01-.004.01.004zM132.936 112.593l.012.04-.012-.04zM131.595 114.481l-.002.005.002-.005zM129.387 115.184l.012.004-.018-.016.006.012zM129.899 113.665l-.004-.007zM129.816 113.641l-.004-.017.004.017zM129.13 114.945l.019.033-.019-.033zM129.562 113.999l-.002-.008.002.008zM131.461 112.405l.01.005-.01-.005zM132.139 113.489zM132.108 113.437l.03.053-.03-.053zM132.098 113.497l.005.002-.005-.002zM132.389 113.332l-.003-.004.003.003zM132.35 113.383l-.018-.012.018.012zM132.08 113.702l-.001-.001zM131.906 114.372c.022-.062.01-.184.071-.208l-.051-.121.093.089-.019-.04.051.051-.052-.06.097.075.044-.044-.038-.069.049.054-.069-.2.01.015-.02-.049-.019.01-.09-.109-.004-.037.107.04-.082-.124.089.07-.043-.046.048.033-.014-.053.037.05.019-.03.008.025-.007-.036-.077-.065.009-.025.036.049-.018-.059.023.023.033-.035.01.015-.041-.062-.089-.075-.01-.073.021.038.16.189.016-.009-.069-.071.013-.007-.102-.102.048.032-.034-.07.006.017.099.045.032.042-.013-.013.065.053-.009-.045-.055-.049.103.062-.049-.053.057.008.118.094-.004-.057-.042.013-.053-.06.025-.036-.039-.036-.028-.094.035.06.044-.004.031.053.001-.03.01.009.005-.037c.023-.023-.075-.127-.123-.2l.062.056.006.019.119.091-.062-.065.022-.012-.077-.077.021-.021.053.06-.007-.036-.085-.102.046.024.012.023-.011-.034.054.024.04.013-.056-.059.021-.012.136.134-.081-.104.129.117.058-.003-.089-.069-.093-.178-.019-.01-.05-.081c.061.065.185.156.189.124l-.12-.103.003-.021.022.025.031-.016.104.081-.044-.035-.037-.068.057.008-.094-.097.112.07-.001-.023.064.064-.076-.127.119.083-.082-.124.11.089-.027-.035.102.041-.064-.081.037.029-.054-.061h.01l-.04-.071.042.042.074.062-.176-.181-.03-.054.074.068-.07-.08.061.026c-.002.01.125.149.139.132l.048.08.041.039-.037-.068.12.092-.055-.038-.017-.019-.046-.037-.024-.056-.125-.149.021-.001.124.109-.075-.067.07.04.009.015.039.02-.072-.07.033.012.105.12-.055-.089.01-.005-.088-.081.013.014-.039-.059.038.028-.025-.035.058.048-.043-.065.052.041.063.005-.053-.061c.122.101.08.005.084-.027l-.092-.107.104.101v-.02l.108.118-.044-.104.061.046.013.033.017.011-.111-.147.101.074-.002-.029-.101-.073.001-.051-.128-.058.053.08-.054-.048.022.045-.116-.104.094.098-.056-.039-.081-.104c-.099-.064.02.068.042.115l-.022-.027.019.04-.066-.073-.011.016-.007-.006-.01.006-.08-.095.053.079-.08-.074-.007.033-.067-.062.033.03-.042.014.023.106-.105-.101.034.07-.111-.117.021.038-.013-.013.029.044-.084-.062.056.058-.04-.027.034.051-.013-.013.003.019-.057-.05-.01.026.042.037-.075-.048.046.043-.048.037-.045-.055.019.099-.132-.096.036.061-.06-.011.012.036-.021-.019.047.044-.071.01-.01-.015.012.023-.056-.059-.038.021.04.028.004.037-.066-.042-.012-.024.042.057-.056-.019.01-.006.055.069-.034-.031-.014.037-.059-.057.004.058-.025-.025.024.036-.064-.044.037.029-.01.024-.035-.04-.047.026-.022-.027-.021.031-.039-.038.018.031-.051-.052.07.08-.058-.047.021.026-.126-.068.066.062c.109.158-.134-.016-.103.076l-.051-.051.048.072-.068-.071.069.111-.05-.062-.022.072.019.019-.03.037-.027-.037-.008.018-.04-.048-.047.006.05.062-.041.022-.017-.031.024.056-.03-.032.018.07-.07-.021.04.047-.046-.023-.005-.008-.004.013-.045-.055.086.111-.07-.03-.01-.015-.101-.004-.019-.021-.016.01-.035-.041.039.078-.025-.025-.04.062-.01-.015-.027.035-.01-.012-.011.014-.022-.027-.046-.005.07.1-.066-.042-.006.043-.025-.025.009.045-.01-.015.009.064-.073-.039.022.116-.058-.027.047.043-.167-.006-.046-.044.044.054-.128.052.031.092-.005-.008-.046.085-.043-.045-.018.02.04.027-.051-.012.039.058-.021-.017.022.025-.065-.053.064.104-.05-.042-.055.02.027.016.037.068-.101-.094.066.062.003.049-.015-.021-.079-.036.069.091-.069-.052-.049-.003.023.087-.063-.045.085.103-.106-.09.091.099-.255.021-.016.117-.01-.015-.049-.002.061.026.015.041c-.064-.014-.146-.027-.128.051l-.05.016-.033-.04.069.171-.066-.042.043.046-.083-.054.047.063-.047-.044c-.015.009-.003.071-.103-.013.04.098-.027.125-.082.145l.02.068-.063-.044.024.076-.013-.015.007.057-.098-.064-.033.009s-.712.285-.342.888l.115.135-.031-.003.179.16.003.018.03.013-.081-.083.069.045-.073-.117.001.009.076.057-.003.002.051.032.022.047-.023-.037.069.061.008-.014.035.04-.027-.055.066.023.063.063.019-.029.023.027-.014-.033.081.045-.023-.066.045.055.001-.031.047.063c.095.008.325.188.312.097l.055.069c-.034-.091.143.06.161.03l-.039-.039c.154.084.123-.027.211-.018l-.032-.021-.038-.078.073.06-.053-.041c.133.065.177-.028.279-.035l.244-.205-.068-.07.145.019c-.011-.093.167.007.081-.154l.047.044-.002-.028.013.013.032-.048-.051-.051.023-.003.025.025-.039-.059.079.017.012-.086.105.031.084-.105-.06-.058.005-.012.025.025.047-.007-.021.002-.046-.063.013.013-.024-.036.119.103.008-.144.09.06-.129-.137.021-.002.062.062.004-.019.022.027.068-.058-.048-.033.051-.028.04.048-.014-.052.053.079-.038-.077.06.025-.062-.055.076-.013.039.039.068.006zM132.402 113.334l-.014-.002.035.039-.021-.037zM132.096 113.58l.012.017-.012-.017zM132.121 113.738l-.041-.036.041.036zM132.42 113.041l.021.023-.021-.023zM132.887 112.641l-.01-.006.01.006zM132.781 112.585l.003.012-.003-.012zM132.335 113.165l.013.021-.013-.021zM132.791 112.613l-.012.001.01.01zM132.9 112.64l-.014.001.014-.001zM132.512 112.815v.002-.002zM132.854 112.728l-.003-.001.012.015zM132.947 112.633l.006.013.01.002-.016-.015zM132.682 112.803l-.04-.044.04.044z"/></g><g fill="#587589"><path d="M72.284 76.562l-.041-.772c-.025.016-.023.211.041.772zM14.154 56.663l.022.181-.022-.181zM78.188 48.999l-.021.035-.09.179.111-.214zM75.272 85.632c-1.254-10.261-1.336-13.015-2.818-23.627l-.348-2.722c2.021-3.417 4.112-6.954 6.06-10.249.443-.914 1.122-2.072 1.855-3.293l2.699-4.538-1.914-1.331-.806-.738c-.816-.521-1.756-1.159-2.502-1.784l.069.007c-1.219-.779-2.501-1.784-3.108-2.171l.068.006-1.424-1.022.271.137c-2.089-1.409-4.187-2.935-6.008-4.322l.068.23-1.245-.958-.81-.606-.949-3.41c-.334-1.205-.666-2.472-1.025-4.135l.049.05c-1.786-5.305-1.98-8.584-3.797-14.081.12.366.113.268.091.115l-.069-.367-.028-.206c-.606-2.23-1.22-4.509-1.681-6.09-.73 1.82-1.179 3.063-1.143 3.343-1.148 2.669-1.002 2.113-1.25 2.412.027.016-.018.188-.11.461-.078.238-.141.434-.253.733-.211.568-.511 1.306-.804 2l.229-.657-1.662 3.986.55-.686c-.964 2.077-.494.422-1.304 2.459l.19.052-.173.383-.126.261-1.521.218-1.669.211c-1.104.133-2.226.263-3.575.47-3.736.728-7.545 1.524-11.361 2.335l-10.928 2.333c-1.602-1.832-3.184-3.64-4.735-5.412l-2.419-2.836-2.806-3.345-.58-.89c-.17-.395-1.626-1.842-2.626-2.855.119 1.259.2 2.225.131 2.386l.218 2.421c-.009.587.019 1.978-.089.787l.063 1.233.041.488.122.974-.065 1.374c.146 5.029.615 9.288.826 14.579.044 6.366.887 18.31 1.375 25.19.801 9.668.508 20.973 1.366 30.869-.015.324.095 1.155.12 1.148l.42 9.074s2.103 43.998 2.217 10.486l.058.222c-.133-4.971-.264-8.099-.669-11.513.261-.555-.172-4.079-.137-5.247l.029.108c-.372-3.02-.125-6.247-.469-9.158.028.11.11.171.148.841-.142-2.125-.35-5.03-.191-5.197-.296-5.081-.571-12.177-1-15.419l.058.221c-.273-1.848-.146-2.402-.341-4.472l.031-.237c-.279-2.013-.321-5.898-.478-7.528l.106-.111-.227-4.022.051 1.505c-.332-.508.041-3.055-.303-5.964-.097-2.734-.911-5.509-.902-8.354-.21-1.346.292 1.18.081-.836.156-.076.147.938.249.412-.174-1.982.001-3.265-.229-5.708l.12-.106c-.386-3.185-.136-6.037-.458-8.153-.266-3.291.259-2.228-.154-5.647l.072-.233.077-.148c.01-.331-.231-.652-.183-1.09l.022.033c.116.294.494.696.375.712.174.262.241.348.424.544l1.969 2.174c1.359 1.493 2.803 3.106 4.293 5.031.424.33 1.014.977 1.578 1.602l.801.88.49.522c.165.17.306.311.419.411l.079.113.599-.101.834-.155 1.265-.234c.75-.134 1.111-.174-.132.17-.228.062-.637.142-.616.102l-.298.185c2.763-.322 4.911-1.12 7.606-1.627-.804.121-1.863.345-1.17.12l2.5-.487-.499.206 3.731-.691-.538-.021c1.835-.304 2.518-.22 4.536-.812.908-.286-1.758.18.156-.248 2.449-.405 6.123-1.013 9.236-1.602-.318-.083.519-.246 1.374-.448l.123.102.532-.132.5-.114 1.101-.218c.768-1.686.616-.738 1.543-3.167l-.036.305.108-.914c.96-2.866.877-1.391 1.886-4.601-.251.612-.375.729-.351.507.013-.111.062-.306.152-.565l.166-.436.19-.431.011.127-.026.214.124-.346.046-.165c.03-.102.062-.194.114-.282-.044.268.062.3.183-.035-.011.026-.041.477-.03.452.019-.212.081-.527.171-.738l.04-.196c.058.477.137.746.222 1.058l.297 1.17c.099.418.164.752.173.956 0 0 .975 4.044 1.396 4.921l-.081.853c.399 1.009 1.31 4.062 1.499 5.331l-.076-.229c.402 1.747.821 3.285 1.235 4.749l.616 2.156.693 2.522 1.467 1.083 1.175.911c-.071-.231 1.687 1.152 1.35.677 3.641 2.437 6.219 5.013 7.832 5.486 1.625 1.15 1.825 1.5 2.638 2.131l-.401-.256 2.517 1.791-1.507 2.509c-.665 1.215-.548 1.537-1.879 3.63.323-.743-.182.136-.659.932.292-.518.353-.694-.335.313-.06.163-.179.4-.292.621l-.041.017c-.764 1.346-.597 1.131-.215.523-.004.039.044-.001.184-.178-.943 1.307-2.296 3.844-2.551 3.917l-1.405 2.426-1.367 2.411 1.05 6.669c-.037.444-.235-.442-.414-1.552l.385 2.719c-.136-.006-.278-1.554-.414-2.391l1.373 10.488.207.774.012.229c.054-.019.24.823.331 1.386-.046.553-.272-.004-.021 1.879.081 1.502.603 4.223.917 6.164-.116-1.053-.008-.723.091-.276.126.942.08 1.5.224 2.22l-.145.11c.1-.39.477 2.439.585 2.778-.046.552-.289-1.447-.406-1.671l.753 5.659c.378 1.998.1-.387.362.561.26 1.773.593 3.495.763 5.549l.055-.664c.539 3.326.781 5.326.932 7.597 4.345 24.742 2.221 5.043 2.221 5.043-.961-9.838-2.018-14.845-3.633-26.494z"/></g><g fill="#587589"><path d="M54.388 71.362l-.03-.014.03.014zM53.753 72.6l-.01-.021.01.021zM54.733 70.609l.006.004.024-.053-.03.049zM53.253 72.723l.003.002-.003-.002zM53.54 72.991l.011.04-.011-.04zM55.54 70.42l-.053.007.053-.007zM55.622 69.566l-.011-.001.011.001zM55.336 69.815l.013.029-.013-.029zM55.357 69.858l-.008-.014.008.014zM46.715 71.329l-.088-.027.088.027zM51.407 70.668l.011-.017-.011.017zM46.336 71.5v-.02.02zM55.521 70.88l.011.081-.011-.081zM50.919 72.799l-.001.005.001-.005zM46.336 71.5v.023l.018-.017-.018-.006zM48.583 72.53v-.001l-.001-.009zM48.424 72.574l.013-.032-.013.032zM46.627 71.302l-.05-.016.05.016zM48.012 73.048l.002-.01-.002.01zM53.57 72.988l.008.009-.008-.009zM53.602 75.217v-.001.002zM53.651 75.185l-.049.032.049-.032zM53.467 75.034l.007.017-.007-.017zM54.372 74.728l-.003-.007.003.007zM54.256 75.099l-.02-.007.02.007zM52.827 74.53v-.002l-.001-.001zM50.938 72.98c-.06-.106.28.125.394.289.103-.03.152.019.215.056l-.089.092.069.015-.055.047.073-.037c-.031.034.079.13-.055.12l.152.166.112.012-.063.037c.026.168.341.006.479.242l-.026-.003.122.062-.086-.103.148-.047.113.08.142.311c.045-.002.118-.079.178-.021l.013.182.029-.062.023.11.124.066-.052.034.144.146-.055-.026c.023.163.074.021.092.056l-.015-.167c.032.052.08-.039.095.087l-.043.043.121.052-.005.044c.053-.061.115.114.191.207l-.013.01.057-.046-.042-.216.149.076-.036.021c-.013.144-.005.285-.058.302.034 0 .073.021.07.084l-.002-.149.053.063-.019-.233c.043 0 .046.201.045.134l.078-.023-.021.001c.058.122.109.092.162.327l-.011.065-.005-.032.057.187c-.025-.122.053-.016.091.044l-.039-.151.012-.088c.003-.101.073.438.106.266l-.023-.157c.027-.04.065.052.083-.103.022.023.06.034.102.167.004-.118.084-.138.055-.3-.071-.005.007.249-.088.197l-.027-.169.078-.255-.032-.073c.022-.16-.014-.306.035-.375.048.088.02.134.008.189l.078-.145.005.168.03-.153.008.018c-.06-.157.038-.083.043-.201.062-.182-.027-.369-.059-.544l.066.064-.003.065c.01-.065.118-.021.138.054l-.057-.111.048-.121-.08-.103.048-.146.052.095c.028-.019.049-.072.013-.132l-.085-.161.065-.038.006.06c.076.034.001-.077.002-.106l.081-.066c-.012-.036.022-.084.064-.075l-.068-.052.045-.115.175.08-.092-.141.176.023c.077-.023.096-.089.089-.143l-.121.008-.109-.274-.027.016-.061-.109c.08.043.25.015.261-.082l-.161-.014.008-.063.028.021.05-.111.143-.013-.061.003-.044-.103c-.026-.077.018-.087.083-.103-.039-.001-.127-.001-.124-.054.138.046.085-.084.156-.059l.003-.062.085.031c-.119-.044-.089-.113-.092-.175l.164-.038-.102-.151c.009-.044.11-.006.149-.004l-.035-.033.144-.115-.083-.075.05-.002-.069-.046.014-.021-.048-.104.056.021.1.004c-.033.008-.163-.148-.232-.101l-.038-.074.1.018-.091-.062.085-.062c-.004.032.162.128.185.051l.059.109.054.019-.044-.103c.084.031.118.023.165-.019l-.076.019-.021-.016-.063.004-.028-.098c-.153.016-.068-.139-.161-.128l.03-.048.167.022-.101-.018.097-.043.012.018.054-.033-.096-.029.047-.042.138.092c.004-.032.026-.131-.067-.119l.015-.034c-.043.01-.13.051-.118-.024l.017.006-.048-.071.051-.007-.032-.039.078.003-.054-.08.072-.007.093-.125-.069-.047c.166.003.119-.162.13-.258l-.12-.085c.035.033.13-.052.14.039l.002-.052.143.08c.014-.055-.118-.138-.048-.186l.082-.009.015.059.021-.005c.066-.108-.098-.07-.141-.153.012-.075.092-.032.137-.021l.002-.073c.042.062-.085.062-.137.022.116.003.044-.104.009-.138l-.181.126c.029.024.124.054.066.098l-.072-.01.026.073c-.05.001-.114-.077-.156-.026l.125.055-.077.018-.105-.1c-.136.042.019.141.045.217l-.029-.024.021.068-.086-.053-.018.066-.01-.002-.016.039-.104-.079.066.098-.106-.026-.016.107-.09-.021.044.011c-.031.027.1.204-.064.129l.018.233-.14-.04.04.115c-.048.022-.128-.021-.147-.068l.025.056-.017-.006.036.054-.115.017.073.034-.054.013.042.062-.017-.006.002.041-.077-.008-.018.092.056.008-.103.034.061.017c-.13.051.009.163-.077.204l-.058-.048c.004.062-.042.144.012.225-.094-.009-.122-.013-.181.031l.043.084-.087.103.013.069-.027-.004.062.017-.106.181-.012-.019.013.039-.074-.035-.059.139.055-.013-.001.093-.092.032-.014-.039.053.061-.079.07.015-.034.07.066-.045-.011-.026.131-.079-.023-.003.146-.034-.013.03.045-.088.021.05-.001-.018.087-.046-.031-.074.173-.029-.024-.037.133-.053-.017.023.04-.068-.024.096.048-.073-.018.03.02-.143-.009.082.044c.142.171-.129.05-.075.162l-.054-.067.055.103-.071-.1.078.169-.051-.096c.017.061.027.156-.006.126l.017.034-.021.075-.023-.075-.004.032-.033-.097-.03-.004.038.135-.025.033-.012-.069.018.126-.02-.081.011.16-.023-.077-.027-.056.016.108-.03-.106-.001-.014h-.007l-.015-.121.023.232-.042-.152v-.025l-.057-.173v-.04l-.009-.017.001-.077-.017.104.002-.052-.042-.023.006-.019-.025-.02.006-.017-.009-.008.014-.036.003-.05-.063.108.029-.083-.03.006.021-.03-.035.018.013-.012-.056.015.004-.113-.239-.116-.005-.095-.044.046c-.091-.087-.072-.299-.185-.384l.044-.046-.07.026c-.093-.146-.158-.253-.302-.412-.075-.032-.197-.053-.258-.153l.014.002c-.157-.116-.302-.235-.43-.43l.035-.055c-.062.037-.087-.09-.119-.128l.021.094c-.062.022-.099-.105-.108-.185l-.083.011-.005-.045-.02.028-.015-.141c-.021.003-.113-.066-.151.011l-.01-.106-.16-.191-.083.059.04.004c.001.085-.072.208-.111.203.05-.115.003-.126-.021-.166l.015.11c-.043.098-.128.206-.154.19l.023-.056-.157.033c-.044.111-.093.091-.059.208-.068.094-.046-.059-.073-.048-.023.092-.136.15-.17.106.015.204-.232.136-.193.282l-.098-.013c.015.035.041.121 0 .18l-.124-.076.042.146c-.086.03-.173.082-.259.144l-.154.111c-.096.076-.191.156-.315.189-.055.09-.107.222-.207.288l-.002-.021-.111.053.104-.013-.024.077c-.133.046-.305.112-.376.27l-.139.096-.021-.051c-.043.109-.067.168-.083.307l-.096-.017.036.052-.117-.022.018.089-.044-.046-.068-.049c.039.095-.013.103-.028.083l-.01.094-.004-.1-.018.112.003-.029-.024.084.019-.174-.01.061.012-.096.006-.067.01-.03.005-.006v-.001l-.053-.097c-.35-.627-.812-1.281-1.262-1.393-.065.012-.128-.021-.183.034l-.014-.076-.19.149-.032-.026-.006.052.107-.046-.043.091c.054.004.202-.055.174.039l-.016-.014-.061.086-.005-.012-.029.07c.017-.051-.094-.059-.073-.034l.053.009-.071.062.031.048-.054.013.084.035-.003.127-.081.04.066.106-.038.005.053.029c-.028.027.046.082-.036.122l.111.07-.075.01.057.062-.09-.005c.042.23-.157.475.005.617l-.096.006c.146.088-.028.251.038.357l.049-.024c-.032.117-.001.21.042.299.031.067.155.281.201.438l.01-.062.146.098c-.016.028-.105.05-.041.121l.024-.093c.037.364.37.905.585 1.446l.199.347c.414-.378.873-.714 1.284-1.13-.077.076-.092-.092-.025-.111.258.07.248-.28.495-.298l.101-.115.06-.052.13-.084c.086-.054.162-.116.177-.248l.046.044.037-.062.011.014.145-.147-.047-.056.06-.035.023.027-.007-.086c.082.097.098-.077.163-.059.027-.056.069-.169.15-.209.056.036.134-.036.206-.058.086-.102.21-.244.349-.342l-.058-.058.01-.017.023.027.03.013-.012-.007-.04-.069.01.016-.02-.041.088.133-.004-.125.029.117-.031-.228.011.009.012.107.005-.018.002.045.018.018.008-.015.003-.082.018.044-.015.075.019-.048-.028.108.027-.092-.015.074.028-.092-.001.067-.027.051-.025.049zM54.395 74.695l-.022.032.024.093-.002-.125zM53.232 74.862l-.013.016.013-.016zM52.822 74.605l.004-.075-.004.075zM54.647 73.329l.024.028-.024-.028zM55.441 71.113l-.013.005.013-.005zM55.294 71.195l.001.026-.001-.026zM54.416 74.105l.005.058-.005-.058zM55.303 71.252l-.017.026.013.005zM55.462 71.079l-.021.034.021-.034zM54.856 72.408v.003-.003zM55.378 71.42l-.004.003.016.015zM55.532 70.961l.008.019.014-.014-.022-.005zM55.111 72l-.052-.03.052.03z"/></g><g fill="#587589"><ellipse cx="48.75" cy="58.875" rx="4.25" ry="3.625"/><path d="M45.855 61.989l-.023.024.023-.024zM47.753 63.006l-.027.009.027-.009zM44.983 61.072l.008-.002-.044-.078.036.08zM52.31 62.06l-.023.021.023-.021zM49.656 63.099l.034-.026-.034.026zM45.247 60.176l-.026.047.026-.047zM44.757 59.218l-.01.004.01-.004zM44.644 59.692l.031.025-.031-.025zM44.691 59.729l-.017-.011.017.011zM43.923 58.655l.052.113-.052-.113zM53.708 57.812l.022.004-.022-.004zM44.332 58.724l-.013.025.013-.025zM45.643 60.565l.09.041-.09-.041zM51.785 57.752l-.011-.013.011.013zM44.332 58.724l.015-.029-.024.008.009.021zM50.4 54.622h.001l.012-.006zM50.18 54.484l.056-.001-.056.001zM43.976 58.768l.03.063-.03-.063zM47.543 54.497l.022-.012-.022.012zM49.474 63.089l-.022-.009.022.009zM50.602 61.471v-.001zM50.561 61.553l.041-.082-.041.082zM50.753 61.428l-.011-.002.011.002zM49.359 61.784v.005l.001-.004zM49.636 61.727l.023.016-.023-.016zM51.259 60.933l.001.002.001-.002zM51.942 58.802c.045.103.02.223.041.348.009.124.028.257-.042.352.075.072.052.142.048.218l-.122-.04.019.071-.065-.031.066.052c-.044-.013-.074.129-.127-.001l-.11.192.018.11-.052-.051-.048.408-.003-.021-.024.091.064-.055.063.135-.052.094-.213.07c.003.046.052.149.008.202l-.111-.046.033.054-.073-.019-.07.104-.005-.071-.117.09.029-.049c-.087-.053-.032.071-.056.076l.086.063-.081.071-.001-.074-.077.121-.014-.03c-.005.098-.099.09-.178.119l.006-.021-.03.094.092.084-.166.14.035-.062c-.015-.109-.053-.191-.019-.262l-.071.026.034.093-.058.022.057.132c-.045.057-.075-.076-.065-.032l-.081.118.023-.028c-.072-.011-.131.081-.192-.022l.01-.062.006.018-.062-.063c.028.058-.053.08-.091.085l.036.063-.151-.075.004.072c-.056.002-.095-.056-.161-.006l-.107-.127c-.036.043-.142 0-.149.084l.17-.023-.005.083-.186.058.019.05c-.085.051-.096.146-.193.135-.024-.071.033-.062.068-.082l-.157-.007.063-.063-.098.027-.002-.013c0 .107-.078-.003-.136.033-.146.012-.157.157-.238.249l-.024-.081.042-.021c-.051.016-.115-.095-.088-.14l-.017.091-.109.003-.004.109-.136-.006.029-.077c-.03-.023-.077-.03-.097.021l-.068.126-.068-.056.043-.021c-.015-.085-.059.019-.084.023l-.089-.062-.082-.045-.022.079-.107-.017.029-.188-.097.123-.002-.175c-.024-.065-.116-.095-.174-.085l.031.125-.321.111.025.027-.133.061c.044-.081-.013-.253-.133-.264l-.004.161-.084-.009.024-.027-.14-.072-.017-.152.004.063-.127.023c-.096.01-.108-.038-.124-.108-.003.039-.006.13-.073.114.064-.13-.102-.106-.065-.172l-.077-.017.048-.077c-.068.111-.151.062-.22.033l-.014-.187-.198.038c-.05-.028.019-.112.029-.15l-.047.021-.095-.188-.111.043.016-.05-.071.04-.018-.027-.127-.02.043-.042.043-.094c-.003.038-.221.061-.197.159-.028.037-.088.022-.097-.015l.06-.084-.104.045-.033-.123c.035.027.207-.065.134-.136l.142.016.042-.038-.127-.023c.071-.056.078-.09.057-.156l-.017.077-.025.009-.025.058-.116-.037c-.061.152-.172-.042-.205.048l-.027-.07c.091.017.056-.104.114-.13l-.072.074.016-.121.022.004.002-.073-.082.057-.01-.075.164-.041c-.025-.028-.099-.123-.146-.039l-.022-.04c-.018.042-.031.149-.094.075l.016-.009-.096-.022.025-.047-.057-.009.051-.058-.105-.031.048-.063c-.007-.056-.049-.141-.017-.192l-.084.003c.127-.115-.022-.241-.085-.349l-.146-.021c.045.015.092-.136.141-.041l-.021-.06.161.006c-.01-.064-.165-.083-.123-.173l.069-.051.039.056.017-.016c.012-.147-.119-.027-.195-.1-.024-.093.067-.079.113-.086l-.032-.082c.067.052-.048.105-.113.083.106-.046-.009-.137-.056-.165l-.104.233c.037.016.136.003.104.085l-.069.025.057.073c-.043.03-.137-.03-.15.057l.135-.006-.06.066c-.074-.025-.106.031-.139-.062-.098.136.079.168.143.239l-.041-.009.067.063-.106-.004.037.089-.009.005.017.056-.139-.021.125.07-.1.045.07.14-.081.045.04-.022c0 .061.227.158.054.206l.229.234c-.134-.056-.022.165-.121.081.004.082.097.044.14.083-.005.065-.092.095-.152.062l.072.036-.013.009.075.022-.043.125.074-.034-.014.064.086.024-.015.01.043.04-.045.068.104.096.032-.047.002.129.044-.046c.016.17.203.124.223.243l-.079.021c.078.045.165.163.28.165-.033.09-.044.115.006.202l.124.005.128.151.098.027-.009.027.03-.057.236.214-.027.006h.057l-.053.064.205.109-.02-.062.137.032.05.108-.056.001.086-.037.108.108-.052-.027c0-.041.058-.071.092-.054l-.011.045.191.07-.024.078.221.023-.014.033.062-.027.048.092-.01-.047.135.025-.036.045c.141.008.134.129.28.09l-.029.029.212.048-.009.055.062-.023-.016.071.063-.101.023.076.027-.031c.04.143.141.047.212.157l-.004-.092c.224-.177.473.163.734.063l-.003.072.103-.093-.013.1.172-.141c.07.043-.02.055-.05.083.122-.046.296-.101.388-.068v-.026l.276-.033-.039.052.102-.027-.022.07c.071-.006.19-.095.222-.027-.014-.025-.022-.079.037-.091.059.099.148-.087.256-.054l-.052.048c.055.016.084-.046.115-.09v.046l.2-.117c.071.104.193-.091.207-.01l.009-.072.099.01-.007.013.063-.035-.014.084c.052-.041.065-.124.045-.175l.183-.006-.012.024c.135-.094.343.057.403-.109l.003.03.09-.056.006.061.102-.17.018.032c.104-.054.242-.174.356-.269l-.008.026.218-.17.001.021.076-.078.006.043c.004-.113.233-.092.153-.104l.012-.185.127-.021.131-.175.026.024.084-.144-.002.027c.015-.145.175-.067.103-.241.053-.027.088-.124.146-.08l.147-.418.114-.084-.06-.021c.07-.205.308-.392.367-.641l.063.01-.051-.066c.104-.25.148-.609.178-.826-.032-.074-.078-.181-.075-.292l.01.012c-.056-.194-.104-.391-.096-.606l.064.005c-.076-.038-.02-.124-.024-.17l-.04.062c-.069-.047-.018-.145.014-.185l-.097-.072.02-.023-.038-.007.064-.071c-.024-.018-.086-.131-.176-.141l.052-.048-.098-.335-.008.063c-.056.031-.129-.047-.122-.108.071.042.084-.033.115-.083l-.076.055c-.056-.039-.146-.125-.135-.166l.041.017-.031-.204c-.082-.033-.069-.102-.154-.031-.072-.072.042-.073.033-.106-.069-.012-.117-.148-.083-.196l-.234-.186.002-.108c-.029.021-.102.062-.158.025l.058-.141-.127.061c-.072-.173-.204-.343-.359-.485-.164-.13-.334-.258-.463-.419l-.552-.228.028-.006-.166-.118.105.117-.125-.014c-.17-.143-.417-.337-.7-.325-.208.104-.074-.162-.265-.096l.043-.042c-.187.007-.286.001-.474.058.045-.149-.114-.008-.086-.086l-.023.061-.104-.106-.087.07v-.064c-.104-.014-.327.02-.376-.114-.263.051-.662.08-.99.079-.04.056-.132.069-.204.082l-.09-.068c-.071.038-.129.154-.207.123l.004-.021c-.07.034-.151.013-.203.1-.081.017-.171 0-.165-.076.027.124-.179.03-.179.03s-.272.04-.67.222c-.408.145-.931.456-1.405.888-.468.441-.866 1.035-1.028 1.618-.187.582-.12 1.105.029 1.377.058.04.088.136.167.102l-.037.119.246-.061.009.057.037-.063-.115-.019.092-.086c-.041-.045-.195-.087-.114-.19l.003.031c.006-.089.082-.045.103-.062l-.003.019.067-.064c-.045.05.039.148.037.101l-.037-.054.095-.02.005-.082.05.029-.038-.114.081-.145.087.025.048-.167.027.028-.007-.076c.041-.002.043-.123.127-.088l-.005-.17.052.062.019-.112.05.089c.148-.265.538-.208.585-.461l.046.092c.015-.206.25-.114.345-.216l-.039-.038c.263-.029.344-.28.591-.341l-.045-.015.052-.136c.02.019.043.111.084.054l-.064-.035c.222-.022.589-.205.902-.277.205-.069.428-.118.648-.155.229.001.452 0 .665-.038-.065.011-.04-.126.011-.1.131.239.238-.015.367.151.265-.067.436.172.694.073l-.013.063.082-.001-.006.017.229.051.028-.066.065.047-.015.033.08-.038c-.054.114.124.07.138.139.067.006.206.009.285.071-.015.063.078.136.121.205.114.08.334.149.425.312l.054-.062.037.031-.026.025.081.126-.032-.052c.001-.056.083-.084.092-.017l-.014.012.057-.003-.087.135c.128.089.266.115.323.269-.069.025.076.085-.046.124l.176-.074.021.058-.076.042.043.047-.039.004c.148.071.005.237.119.307l.042-.054.056.198-.067-.003c.053.019.11.02.083.083l-.118-.043c.013.034.061.117.116.075l-.053.097.08-.032c-.036.07-.025.161-.021.235l-.054.003-.029.134zM49.32 61.776l.039.008.011-.054-.05.046zM50.955 61.236v-.024.024zM51.215 60.897l.043.036-.043-.036zM48.315 61.98l.013-.031-.013.031zM45.853 60.782v.015-.015zM45.878 60.973l.029.016-.029-.016zM49.004 61.969l.028-.025-.028.025zM45.941 61l.021.034.011-.01zM45.826 60.742l.027.041-.027-.041zM47.262 61.859l.005-.001-.005.001zM46.144 61.023l.002.005.022-.008zM45.733 60.606l.023.005-.009-.021-.014.016zM46.762 61.51l-.042.046.042-.046z"/></g><g fill="#587589"><path d="M35.837 37.333l-.028.017.028-.017zM36.966 38.447l-.024.008.024-.008zM35.502 36.529l.008-.001-.017-.057.009.058zM40.215 37.293l-.011.02.011-.02zM38.48 38.553l.021-.033-.021.033zM36.038 35.919l-.042.032.042-.032zM35.734 35.234l-.011.003.011-.003zM35.566 35.553l.022.019-.022-.019zM35.601 35.581l-.013-.009.013.009zM34.91 34.857l.059.073-.059-.073zM40.811 34.313l.02.003-.02-.003zM35.322 34.899l-.011.017.011-.017zM36.276 36.221l.055.04-.055-.04zM38.979 34.168l-.005-.011.005.011zM35.322 34.899l.013-.019-.024.005.011.014zM39.1 31.495h.001l.01-.003zM38.952 31.336l.048.005-.048-.005zM34.969 34.93l.034.041-.034-.041zM36.742 31.328l.017-.013-.017.013zM38.336 38.57l-.019-.007.019.007zM38.651 37l-.001-.001zM38.663 37.074l-.012-.075.012.075zM38.729 36.948h-.008.008zM38.038 37.295l.001.005-.001-.004zM38.164 37.229l.017.016-.017-.016zM38.879 36.534l.002.001v-.001zM38.949 34.945c.032.15.096.363.064.519.087.047.077.098.086.151l-.126-.02.031.048-.07-.018.074.032c-.045-.006-.053.096-.127.008l-.033.151.056.078-.064-.032.085.286-.012-.016.023.07.025-.047.114.095.001.075-.15.066.082.141-.115-.029.05.039-.062-.007v.088l-.039-.055-.04.082-.002-.041-.003.065.093.042-.028.062-.033-.056-.009.092-.024-.023c.039.076-.048.062-.085.094l-.006-.018.025.081.1.061-.045.139-.005-.057-.134-.22-.033.028.065.076-.026.025.096.107-.057-.021-.006.103.006-.023c-.056-.01-.063.065-.145-.023l-.017-.052.011.014-.067-.055-.029.067.048.056-.118-.058.031.066-.09.011-.103-.117-.053.064.085-.009.025.074-.088.041.024.048-.075.125.019-.081-.082.006.016-.071-.04.041-.004-.013-.061.03c-.07.005-.059.15-.098.241l-.019-.081.021-.021c-.027.015-.065-.096-.054-.141l-.003.091-.055.003-.001.109-.073-.006.018-.077-.051.021-.045.126-.033-.055.025-.021-.049.025-.041-.061-.038-.041-.024.078-.059-.018.053-.183-.075.108.04-.173c.005-.069-.036-.085-.069-.073l-.017.115-.225.115.007.024-.104.053c.053-.07.082-.239.019-.262l-.064.148-.047-.019.025-.022-.069-.065.046-.128-.021.054-.1.021c-.075.011-.061-.036-.04-.098-.02.033-.061.112-.099.091.101-.105-.02-.104.034-.155l-.043-.023.068-.06c-.095.084-.131.035-.179.016l.064-.141-.17.018.093-.117-.044.011.021-.158-.106.023.033-.036-.078.026-.005-.02-.105-.021.054-.027.073-.064c-.017.027-.218.031-.233.101l-.076-.019.085-.057-.105.022.027-.096c.017.024.198-.027.171-.088l.107.027.051-.024-.092-.03c.083-.035.104-.06.118-.111l-.049.056-.025.004-.047.041-.077-.04c-.11.104-.136-.045-.202.018l-.006-.05.146-.082-.09.046.05-.082.021.004.023-.05-.094.034.012-.053.166-.017c-.02-.019-.049-.095-.121-.038l-.004-.031c-.032.029-.085.105-.111.046l.018-.005-.076-.024.041-.032-.046-.011.067-.038-.085-.03.058-.04.019-.132-.083-.002c.146-.072.018-.166 0-.248l-.143-.021c.044.012.101-.089.144-.022l-.017-.042.161.009c-.007-.045-.16-.063-.114-.124l.073-.034.035.04.018-.011c.021-.103-.117-.021-.188-.073-.018-.064.073-.054.119-.059l-.026-.057c.062.037-.056.073-.119.057.109-.032.001-.096-.044-.114l-.12.159c.036.011.136.004.099.06l-.07.016.051.051-.154.035.136-.001-.064.043-.135-.045c-.109.089.071.114.124.166l-.037-.008.045.047-.099-.007.008.063-.01.003.004.039-.129-.021.106.053-.106.026.042.097-.088.027.043-.013c-.012.041.191.118.012.141l.135.181-.138.048.097.07c-.024.045-.114.059-.161.032l.057.03-.017.005.063.021-.078.084.079-.019-.033.044.073.022-.017.006.029.03-.063.044.046.083.047-.032-.054.097.056-.03c-.061.131.109.119.087.205l-.077.008c.051.041.088.133.186.145-.067.067-.087.086-.088.164l.093.021.03.142.068.032-.018.021.048-.042.113.191-.022.001.042.009-.067.047.104.131.012-.058.085.051-.007.104-.042-.007.079-.021.049.103-.033-.028.093-.04-.025.039.13.075-.045.068.155.058-.021.029.054-.015.005.097.008-.052.093.042-.042.04c.11.016.075.131.201.103l-.03.026.16.058-.018.052.053-.016-.026.067.067-.088.003.081.026-.027c.005.155.102.065.146.176l.008-.091c.194-.167.373.177.591.076l-.001.073.082-.095-.007.1.133-.144-.035.084c.098-.048.232-.108.312-.08l-.004-.026.208-.074-.021.057.076-.037-.004.069c.058-.009.137-.104.178-.041l.009-.089.197-.072-.03.05c.052.011.055-.053.064-.102l.014.044.11-.151c.083.076.123-.108.161-.037l-.016-.064.085-.001-.001.011.041-.037.017.076c.03-.042.012-.116-.022-.158l.14-.031v.024c.062-.107.28-.014.259-.17l.014.024.056-.055.028.048.023-.149.027.024c.075-.052.126-.174.174-.27l.006.023.1-.17.009.016.039-.066.021.032c-.038-.086.174-.092.098-.093l-.058-.139.097-.03.034-.149.032.016.009-.119.01.021c-.039-.106.14-.061.017-.178l.112-.066-.013-.305.078-.066-.063-.011c.022-.14.222-.272.221-.438l.064.004-.066-.042c.045-.168.087-.393.097-.532-.033-.047-.096-.116-.082-.187l.009.007c-.044-.124-.081-.25-.054-.388l.063.004c-.073-.026-.01-.079-.01-.109l-.045.039c-.063-.032-.01-.093.035-.119l-.073-.052.025-.015-.034-.006.08-.044c-.019-.013-.059-.09-.143-.1l.06-.03-.026-.225-.021.041c-.061.018-.116-.037-.095-.078.061.032.089-.018.13-.048l-.086.032c-.05-.027-.089-.098-.066-.125l.03.015.048-.147c-.058-.03-.03-.076-.129-.033l.063-.071c-.061-.013-.064-.111-.017-.143-.164.023-.016-.193-.146-.154l.048-.082c-.034.013-.112.036-.142.001l.108-.101-.132.032c.017-.285-.234-.525-.317-.819-.11-.082-.264-.16-.353-.282h.023l-.082-.135.036.123-.088-.035c-.093-.144-.248-.341-.46-.403l-.196-.124.047-.036c-.161-.014-.249-.021-.412.012.063-.14-.089-.031-.053-.103l-.029.056-.071-.119-.083.064.008-.063c-.088-.021-.282.006-.317-.128-.233.043-.571.078-.857.096l-.157.108-.085-.049c-.053.046-.08.16-.151.137l-.001-.021c-.052.038-.126.026-.149.113-.064.024-.145.017-.16-.054.05.108-.133.062-.133.062s-.194.106-.481.306c-.248.221-.572.549-.783.954-.454.804-.465 1.809-.125 2.149.06.025.097.087.172.065l-.03.078.242-.041.012.038.034-.042-.116-.012.086-.058c-.043-.029-.2-.055-.126-.124l.006.02.098-.042-.002.013.062-.044c-.042.034.048.098.043.066l-.04-.035.094-.015v-.055l.052.019-.052-.073.071-.099.09.014.001-.118.034.018-.024-.052.107-.066-.038-.115.063.04-.003-.077.066.058c.122-.181.404-.197.405-.365l.07.06c-.037-.139.195-.096.221-.183l-.048-.024c.193-.052.204-.205.326-.292l-.04-.008-.028-.112.09.04-.066-.026c.194.012.308-.207.485-.22.153-.179.374-.097.518-.158-.024.011-.018-.125.004-.1.045.239.099-.016.135.142.122-.084.118.185.284.039l-.029.057.041-.002-.009.015.091.06.043-.058.022.034-.022.028.066-.037.029.104c.037.01.12.023.138.081l.005.146c.065.048.137.155.179.254l.07-.042.021.022-.033.017.017.094-.001-.042c.022-.039.106-.056.081-.003l-.017.007.047.003-.133.091c.048.083.177.107.19.215l-.08.082.183-.037-.004.044-.083.024.019.039h-.036l.044.228.05-.036.017.144-.062-.006.05.067-.096-.04c-.001.027.021.092.085.063l-.057.068.082-.02-.034.17-.054.001-.042.102zM38.017 37.289l.021.006-.006-.055-.015.049zM38.795 36.791l-.01-.018.01.018zM38.831 36.511l.049.023-.049-.023zM37.52 37.483l.011-.03-.011.03zM36.349 36.405l-.007.011.007-.011zM36.295 36.544l.02.012-.02-.012zM37.882 37.47l.013-.025-.013.025zM36.34 36.566l.007.025.012-.007zM36.345 36.372l.003.033-.003-.033zM36.942 37.334h.003-.003zM36.504 36.594l-.001.004.021-.005zM36.332 36.261l.017.006.002-.016-.019.01zM36.743 37.019l-.049.034.049-.034z"/></g><g fill="#587589"><path d="M47.646 35.993l-.029.015.029-.015zM48.532 37.061l-.023.007.023-.007zM47.418 35.292l.008-.001-.011-.049.003.05zM51.383 35.959l-.008.017.008-.017zM49.927 37.165l.017-.033-.017.033zM48.002 34.771l-.043.027.043-.027zM47.729 34.196l-.011.002.011-.002zM47.555 34.464l.022.016-.022-.016zM47.589 34.487l-.012-.007.012.007zM46.907 33.88l.061.061-.061-.061zM51.824 33.423l.02.003-.02-.003zM47.32 33.916l-.011.014.011-.014zM48.208 35.025l.05.033-.05-.033zM50.013 33.307l-.004-.009.004.009zM47.32 33.916l.012-.016-.023.004.011.012zM50.496 30.906l.001.001.01-.003zM50.384 30.74l.045.007-.045-.007zM46.968 33.941l.035.035-.035-.035zM48.301 30.725l.015-.013-.015.013zM49.797 37.19l-.018-.006.018.006zM49.862 35.688l-.001-.001zM49.884 35.753l-.022-.066.022.066zM49.925 35.646h-.007.007zM49.425 35.928l.002.005-.001-.004zM49.506 35.878l.015.016-.015-.016zM49.999 35.29l.002.001-.001-.001zM49.95 33.955c.031.125.102.303.073.432.094.042.084.083.097.128l-.127-.018.033.041-.07-.015.075.027c-.046-.005-.047.079-.126.006l-.025.125.064.067-.067-.028.115.241-.013-.013.029.06.021-.04.121.081.008.063-.132.059.097.12-.114-.027.054.033-.061-.007.011.075-.044-.048-.028.068-.008-.035.005.055.095.039-.016.054-.042-.051.013.086-.027-.02c.049.065-.035.051-.063.077l-.009-.016.037.071.103.057-.021.119-.013-.05-.159-.196-.025.022.072.068-.021.021.105.098-.056-.021.017.098-.001-.024c-.045 0-.041.061-.128-.021l-.025-.046.012.013-.069-.053-.012.057.051.053-.111-.06.039.062-.074.003-.102-.107-.024.055.06-.003.036.074-.059.029.027.046-.038.112.002-.075-.06-.001.001-.067-.023.036-.004-.012-.036.032-.048.234-.017-.081.014-.021c-.019.014-.048-.097-.043-.142l.001.091-.036.001v.109l-.051-.005.014-.077-.035.022-.038.126-.021-.054.019-.021-.036.026-.025-.059-.022-.039-.026.078-.041-.022.062-.18-.07.109.054-.167-.037-.062-.033.108-.196.119v.026l-.092.043c.057-.068.108-.224.059-.24l-.081.137-.039-.015.026-.021-.05-.055.064-.116-.029.048-.091.021c-.062.001-.044-.039-.015-.094l-.105.083.056-.138-.037-.019.073-.054c-.101.076-.127.034-.169.018l.084-.125-.157.012.104-.102-.043.01.04-.136-.105.021.037-.031-.079.023-.002-.017-.099-.016.055-.023.081-.056c-.022.024-.205.022-.236.087l-.069-.017.089-.049-.105.021.036-.082c.014.02.197-.025.176-.076l.103.021.053-.021-.088-.024.126-.095-.053.048-.025.003-.05.035-.072-.033c-.117.089-.129-.037-.2.017l-.001-.042.151-.071-.093.04.057-.07.02.003.027-.042-.096.029.021-.046.161-.014c-.012-.018-.034-.082-.111-.034l-.002-.026c-.034.025-.091.089-.114.039l.018-.004-.074-.021.042-.027-.045-.009.069-.032-.083-.025.061-.034.026-.111-.082-.002c.146-.06.032-.14.013-.208l-.143-.017.145-.02-.016-.035.161.007c-.007-.037-.159-.052-.111-.103l.073-.028.035.033.019-.009c.022-.085-.117-.018-.187-.061-.016-.054.074-.045.12-.049l-.025-.048c.062.03-.057.061-.12.048.11-.026.003-.08-.042-.096l-.123.133c.036.009.136.003.097.05l-.071.014.051.042-.155.029h.136l-.064.036-.134-.037c-.111.074.068.096.12.138l-.036-.007.043.04-.099-.006.007.053-.01.002v.033l-.125-.018.1.044-.107.022.036.083-.089.022.044-.011c-.014.034.183.099.004.119l.124.152-.14.041.087.06c-.031.039-.12.051-.159.027l.048.026-.018.004.061.018-.084.072.08-.017-.037.038.07.019-.018.005.025.025-.066.039.038.071.049-.027-.062.083.058-.026c-.073.113.1.1.056.179l-.072.006c.038.037.067.117.159.127-.073.059-.095.076-.105.145l.087.019.012.124.056.03-.021.019.052-.038.076.175h-.021l.039.008-.07.042.081.119.019-.053.074.045-.021.096-.038-.007.076-.018.022.102-.025-.027.091-.035-.029.036.111.071-.051.064.136.055-.023.028.052-.014-.007.092.013-.049.076.046-.041.035c.088.028.052.131.169.109l-.03.024.142.059-.021.052.05-.015-.03.065.069-.085-.003.08.026-.026c-.005.149.083.077.122.184l.012-.09c.187-.163.343.181.551.08v.072l.075-.094-.004.1.122-.145-.03.084c.091-.048.213-.11.289-.084l-.006-.026.185-.082-.014.056.068-.037.002.067c.054-.01.119-.104.163-.044v-.087c.076.083.09-.089.167-.083l-.016.054.042-.104.018.042.085-.145c.088.071.102-.105.146-.038l-.023-.061.08-.003v.011l.033-.036.026.071c.025-.039-.009-.111-.047-.15l.121-.033.004.022c.045-.098.265-.015.224-.158l.017.022.046-.051.033.044.002-.136.029.021c.05-.052.088-.16.123-.244l.008.02.076-.15.01.014.03-.059.025.028c-.047-.076.158-.082.084-.083l-.081-.124.092-.025.02-.128.034.014-.003-.103.012.018c-.047-.092.132-.052 0-.154l.104-.057-.04-.261.073-.056-.063-.009c.013-.118.206-.231.193-.371l.064.004-.067-.036c.041-.141.079-.33.086-.447-.033-.04-.1-.097-.083-.157l.009.006c-.042-.104-.076-.211-.047-.327l.063.004-.008-.092-.045.033c-.063-.027-.008-.078.037-.1l-.072-.043.025-.013-.034-.005.081-.038c-.016-.011-.049-.076-.133-.084l.062-.025-.013-.191-.023.035c-.062.015-.112-.031-.09-.065l.132-.042-.087.028c-.048-.023-.083-.083-.059-.106l.029.013.057-.125-.122-.029.072-.062c-.059-.011-.053-.096-.004-.123-.163.021.002-.166-.129-.133l.055-.071-.14.001.116-.087-.133.028c.069-.252-.176-.459-.191-.73-.094-.077-.231-.15-.3-.263h.022l-.058-.126.016.115-.079-.033c-.043-.146-.184-.333-.372-.398l-.162-.134.049-.033c-.152-.02-.236-.03-.393 0 .07-.137-.083-.032-.043-.103l-.031.055-.056-.125-.083.062.011-.062c-.084-.023-.271 0-.302-.134-.227.042-.55.076-.826.104l-.139.118-.085-.046c-.048.047-.063.159-.133.139l-.003-.021c-.046.04-.118.03-.131.116-.062.023-.125.028-.151-.043.065.108-.115.066-.115.066s-.185.103-.407.308l-.337.381c-.1.148-.193.316-.284.492-.333.71-.305 1.549.031 1.836l.174.055-.028.065.241-.034.013.032.033-.035-.116-.01.085-.048c-.044-.025-.201-.046-.128-.104l.006.017.097-.035-.001.01.061-.036c-.041.028.05.082.045.056l-.041-.029.093-.012-.001-.046.052.016-.053-.062.069-.083.09.012-.001-.099.034.015-.029-.044.103-.055-.045-.097.065.033-.007-.065.069.049c.112-.151.391-.164.371-.307l.074.051c-.049-.118.183-.079.2-.151l-.05-.021c.182-.044.161-.177.271-.244l-.039-.008-.042-.096.087.033-.063-.021c.171.012.248-.181.381-.174.095-.16.229-.038.271-.101l.001-.1.052.133c.07-.078.019.154.155.006l-.034.055h.029l-.01.015.06.039.048-.054.011.026-.025.026.063-.039-.001.098.112.059-.023.124c.043.051.107.127.131.212l.074-.036.017.018-.033.014-.001.084.002-.035c.029-.035.108-.048.08-.005l-.017.006.046.002-.139.079c.04.068.164.086.166.176l-.092.072.185-.033-.007.037-.084.021.016.033h-.036l.031.189.052-.03.005.121-.062-.005.049.056-.095-.033c-.002.022.02.077.085.053l-.058.057.082-.017-.036.142-.054.001-.043.089zM49.411 35.924l.014.004-.012-.053-.002.049zM49.961 35.514l-.012-.016.012.016zM49.949 35.269l.05.021-.05-.021zM49.09 36.116l.011-.03-.011.03zM48.262 35.18l-.008.01.008-.01zM48.186 35.303l.018.01-.018-.01zM49.34 36.098l.007-.024-.007.024zM48.227 35.322l.003.021.013-.006zM48.261 35.151v.028-.028zM48.657 35.99h.002-.002zM48.381 35.343l-.001.003.02-.004zM48.258 35.058l.016.005.004-.014-.02.009zM48.537 35.709l-.05.032.05-.032z"/></g><path d="M75.75 32l-1.377 4.47"/><g fill="#587589"><path d="M74.929 35.98l.031.01-.031-.01zM75.238 35.69l.014.009-.014-.009zM74.778 36.165l-.007-.003-.01.013zM75.696 35.008v.005-.005zM75.408 35.407l-.02-.013.02.013zM74.069 36.068l.047.008-.047-.008zM74.188 36.339l.011.002-.011-.002zM74.396 36.312l-.018-.012.018.012zM74.368 36.293l.01.006-.01-.006zM76.313 32.21l-.056-.036.056.036zM75.933 34.336l.018.007-.018-.007zM75.919 32.081l.011-.001-.011.001zM73.983 35.917l-.029-.029.029.029zM74.293 33.673l-.001-.005.001.005zM75.919 32.081l-.012.001.022.006-.01-.007zM76.17 33.634l.007.004zM76.254 33.619l.012.012-.012-.012zM76.257 32.174l-.032-.021.032.021zM76.313 33.193l.005.005-.005-.005zM75.373 35.427h-.011.011zM74.272 34.782l-.001-.001zM74.323 34.813l-.051-.032.051.032zM74.305 34.757h-.006.006zM74.124 35.03l.004.001-.004-.001zM74.134 34.968l.021.002-.021-.002zM74.225 34.57h.002-.001zM74.068 33.907c.009.064.077.166.034.213l.101.083-.123-.036.035.027-.069-.022.074.029-.121-.022-.018.058.065.043-.067-.025.154.144-.015-.008.04.034.012-.017.13.056.021.031-.113.013.129.072-.111-.022.06.021-.057-.007.036.039-.056-.026-.002.034-.019-.018.022.028.1.023.003.026-.055-.026.043.043-.032-.011-.013.046-.016-.01.065.037.113.025.043.06-.036-.024-.229-.094-.01.014.094.032-.007.012.137.043-.057-.008.062.047-.013-.012-.108.004-.047-.022.017.006-.083-.018.028.035.071.019-.119-.01.067.025-.054.018-.147-.029.03.048.031-.031.074.029-.006.042.051.014.068.069-.059-.037-.037.023-.051-.032.013.027-.012-.004.012.036c-.01.03.125.077.202.119l-.081-.021-.014-.014-.147-.027.084.031-.014.02.103.033-.008.027-.075-.029.022.028.123.051h-.052l-.021-.016.025.026-.059.002-.041.006.076.026-.014.02-.182-.056.12.054-.168-.045-.05.028.111.021.164.114h.021l.082.049c-.084-.03-.235-.054-.225-.024l.153.037.008.02-.031-.012-.021.027-.13-.024.056.011.064.043-.054.018.128.042-.132-.011.011.02-.086-.027.125.077-.144-.02.129.071-.138-.028.04.018-.108.01.094.042-.046-.009.074.029-.008.004.068.044-.057-.018-.094-.021.239.08.052.033-.098-.026.099.039-.065.003c-.004-.01-.18-.075-.184-.053l-.08-.049-.054-.017.064.043-.149-.027.067.009.022.009.058.011.048.038.18.075-.018.01-.161-.041.098.026-.081-.005-.015-.008h-.042l.096.029-.035.005-.149-.058.089.053-.006.009.115.031-.018-.005.061.034-.046-.008.039.02-.073-.016.068.038-.065-.012-.058.023.075.029c-.155-.034-.074.031-.062.061l.131.053-.14-.041.01.017-.151-.056.087.072-.075-.014-.026-.022-.02-.002.166.079-.123-.02.015.024.123.02.023.044.14-.006-.084-.046.07.018-.041-.03.151.04-.128-.043.067.009.12.054c.117.013-.049-.051-.091-.082l.033.014-.035-.027.092.035.002-.019.009.002.006-.01.115.047-.084-.046.105.03-.002-.025.088.025-.043-.012.031-.031-.07-.082.14.041-.063-.046.153.052-.036-.024.017.006-.046-.025.104.017-.076-.026.047.006-.053-.029.017.005-.011-.014.073.018-.004-.027-.054-.013.088.009-.061-.018.026-.053.065.028-.062-.078.161.025-.06-.037.058-.018-.028-.026.027.007-.061-.018.058-.04.015.009-.021-.016.077.026.023-.035-.048-.006-.021-.031.079.008.021.015-.063-.031.058-.008-.006.009-.08-.036.044.012-.005-.039.078.023-.03-.048.034.011-.038-.021.077.011-.046-.01-.003-.025.05.019.029-.043.032.014.004-.037.053.016-.03-.02.069.022-.099-.039.073.016-.032-.014.144.003-.088-.024c-.17-.09.125-.046.055-.113l.069.022-.076-.042.093.032-.113-.066.073.032-.014-.073-.025-.008.01-.046.041.021-.001-.019.058.024.039-.026-.073-.032.025-.038.029.02-.047-.038.042.015-.047-.054.071-.012-.057-.023h.052l.007.004-.002-.013.065.028-.128-.059.077-.005.016.009.091-.042.025.01.01-.015.05.02-.07-.051.034.011.007-.072.016.008.008-.043.014.006.003-.017.033.014.042-.016-.109-.056.079.008-.015-.04.034.011-.028-.035.015.008-.038-.052.083.001-.074-.092h.063l-.061-.018.15-.068.061.018-.064-.027.09-.102-.07-.067.008.004.001-.095.06.021.006-.024-.048-.007.05-.012-.062-.033.026.005-.032-.012.083.018-.105-.062.063.015.04-.042-.031-.001-.064-.043.132.037-.088-.024-.024-.041.023.012.087-.004-.104-.049.084.015.044-.019-.061-.065.077.01-.123-.052.136.031-.126-.045.215-.132-.041-.11.015.008.044-.019-.066.003-.032-.03c.064-.016.143-.04.09-.101l.036-.035.048.02-.14-.119.078.008-.059-.021.098.01-.07-.035.061.018c.01-.015-.03-.064.097-.034-.08-.068-.033-.122.006-.164l-.049-.051.077.01-.057-.055.018.007-.033-.047.117.013.025-.021s.497-.565-.109-.927l-.165-.066.029-.012-.231-.06-.012-.014-.032.002.111.037-.083-.009.12.069-.005-.007-.094-.016.002-.003-.06-.005-.042-.031.039.021-.09-.022v.016l-.05-.02.049.035-.069.009-.086-.027-.002.034-.033-.014.027.022-.092-.003.051.048-.065-.027.013.027-.07-.035c-.087.035-.375-.02-.32.054l-.081-.036c.072.063-.154.011-.156.045l.052.017c-.175-.005-.095.079-.178.108l.038.005.07.05-.092-.019.065.012c-.148.002-.143.104-.231.155l-.121.287.094.031-.137.048c.052.077-.151.068 0 .171l-.062-.018.015.024-.017-.005-.007.056.069.022-.02.013-.034-.011.061.034-.077.021.03.08-.108.02-.025.129.079.023.001.013-.034-.011-.039.026.017-.01.07.035-.017-.006.039.021-.153-.037.06.128-.107-.011.177.062-.018.01-.083-.026.004.019-.033-.014-.034.081.058.008-.031.046-.058-.021.036.04-.084-.046.07.051-.065.004.08.021-.062.045-.052-.016-.055.019zM74.11 35.034l.013-.004-.049-.019.036.023zM74.268 34.683l-.018-.009.018.009zM74.172 34.556l.052.014-.052-.014zM74.23 35.298l-.03-.011.03.011zM74.003 35.854l.011.001-.011-.001zM74.122 35.856l-.008-.009.008.009zM74.248 35.151l-.021-.013.021.013zM74.101 35.835l.01-.005-.014-.004zM73.992 35.862l.012-.007-.012.007zM74.254 35.536l-.001-.001.001.001zM73.993 35.764h.003l-.018-.008zM73.954 35.888l-.012-.008-.009.002.021.006zM74.11 35.622l.056.021-.056-.021z"/></g><path d="M80.25 34l-3.177 4.445"/><g fill="#587589"><path d="M77.817 38.07l.026.02-.026-.02zM78.239 37.842l.01.013-.01-.013zM77.595 38.228l-.006-.005-.015.011.021-.006zM78.966 37.232l-.003.005.003-.005zM78.521 37.583l-.015-.02.015.02zM76.941 37.928l.043.022-.043-.022zM76.946 38.253l.009.006-.009-.006zM77.161 38.281l-.013-.018.013.018zM77.141 38.253l.008.01-.008-.01zM80.714 34.382l-.04-.054.04.054zM79.472 36.572l.015.013-.015-.013zM80.382 34.134l.011.001-.011-.001zM76.918 37.742l-.016-.04.016.04zM78.141 35.405l.001-.005-.001.005zM80.382 34.134l-.012-.002.02.012zM79.991 35.879l.006.007zM80.08 35.886l.006.017-.006-.017zM80.674 34.328l-.022-.031.022.031zM80.312 35.443l.002.007-.002-.007zM78.478 37.596l-.011-.002.011.002zM77.666 36.595zM77.703 36.644l-.037-.048.037.048zM77.708 36.577l-.006-.001.006.001zM77.419 36.822l.004.003-.003-.002zM77.455 36.759l.02.008-.02-.008zM77.707 36.354h.001zM77.825 35.595c-.018.072.008.2-.054.239l.064.118-.105-.072.023.039-.058-.043.061.052-.109-.058-.041.057.045.065-.055-.045.091.198-.012-.013.025.047.019-.015.104.096.007.04-.116-.017.098.113-.1-.054.05.039-.053-.024.019.052-.043-.044-.017.036-.011-.024.011.037.088.052-.007.029-.043-.044.024.06-.027-.021-.031.046-.012-.016.049.057.1.059.018.076-.025-.036-.185-.165-.016.013.079.06-.012.011.116.085-.053-.024.042.068-.008-.016-.107-.025-.038-.038.014.011-.073-.042.013.046.062.04-.112-.043.056.045-.06.004-.132-.073.009.061.043-.024.061.052-.023.044.044.03.038.093-.042-.056-.045.015-.037-.049.001.033-.011-.008-.002.042c-.022.029.091.118.148.184l-.07-.044-.008-.019-.132-.069.07.056-.021.018.087.064-.02.027-.061-.052.01.037.099.089-.051-.015-.014-.022.014.034-.059-.014-.043-.004.064.049-.022.018-.155-.111.095.092-.146-.095-.061.016.1.054.114.168.021.005.06.076c-.069-.056-.208-.124-.209-.088l.135.082-.001.023-.025-.022-.032.024-.117-.062.05.027.045.065-.06.004.107.082-.125-.048.003.024-.073-.053.091.118-.132-.061.098.113-.124-.068.032.03-.11-.019.075.071-.042-.023.061.052-.009.003.048.067-.048-.035-.083-.049.201.152.037.049-.084-.055.081.069-.065-.014c0-.012-.145-.131-.158-.108l-.058-.075-.046-.033.045.065-.135-.07.062.028.019.016.052.028.031.054.145.13-.021.006-.141-.089.085.055-.077-.027-.011-.013-.042-.011.082.058-.036-.004-.122-.104.065.083-.009.007.1.066-.015-.011.046.053-.042-.021.029.032-.064-.038.052.06-.059-.031-.066.01.061.052c-.138-.079-.084.013-.086.049l.107.093-.12-.083.002.021-.125-.102.056.102-.067-.035-.017-.032-.018-.008.13.132-.112-.055.005.03.112.055c-.097-.057-.028.023.004.054l.14.032-.063-.073.061.039-.028-.043.132.084-.108-.082.062.028.096.092c.109.046-.027-.068-.056-.113l.026.024-.023-.039.076.063.01-.02.008.005.01-.009.093.083-.063-.073.091.062.004-.038.076.051-.038-.025c.024.003-.1-.134.042-.024l-.034-.108.12.083-.042-.067.128.099-.025-.036.015.011-.035-.04.094.047-.064-.049.044.02-.04-.046.015.011-.006-.019.064.04.008-.03-.047-.029.083.034-.052-.036.047-.05.052.048-.029-.102.147.072-.043-.056.063-.003-.017-.036.023.015-.053-.036.073-.027.008.011-.015-.022.064.049.037-.031-.044-.021-.007-.039.074.029.015.023-.05-.051.06.007-.009.008-.063-.061.038.025.011-.043.067.047-.009-.061.029.021-.029-.033.071.033-.041-.023.007-.029.041.035.046-.039.026.024.02-.039.045.032-.021-.029.058.042-.081-.069.064.038-.027-.023.139.043-.076-.051c-.129-.144.142-.015.1-.106l.058.043-.057-.066.079.06-.083-.102.058.054.017-.082-.021-.016.029-.047.031.034.007-.02.047.042.049-.018-.058-.054.04-.034.02.029-.031-.054.035.028-.024-.071.075.006-.046-.041.05.015.006.007.003-.015.052.048-.101-.099.077.015.012.014.105-.02.021.018.015-.013.041.035-.048-.074.029.021.036-.076.011.013.026-.044.011.011.01-.017.026.024.048-.006-.083-.09.074.03.002-.047.029.021-.013-.046.012.014-.015-.067.08.025-.035-.12.062.017-.052-.036.175-.032.052.036-.052-.048.129-.085-.042-.091.006.007c-.01-.048-.011-.093.04-.102l.049.039.016-.025-.044-.02h.054l-.046-.053.023.013-.025-.022.073.042-.078-.096.056.034.056-.035-.03-.009-.045-.065.114.076-.076-.051-.007-.051.018.02.086.02-.081-.082.076.039.052-.008-.033-.087.071.032-.099-.089.12.071-.104-.084.264-.083.005-.13.012.014.051-.009-.065-.014-.02-.041c.069 0 .156-.004.129-.084l.05-.028.039.035-.088-.167.074.03-.049-.039.091.038-.055-.057.053.036c.015-.013-.003-.077.108-.01-.05-.095.017-.14.073-.175l-.027-.068.071.032-.033-.075.015.013-.013-.06.109.045.034-.016s.716-.473.272-1.031l-.133-.117.033-.004-.202-.129-.006-.019-.032-.007.093.071-.077-.033.088.108-.002-.009-.085-.043.003-.002-.056-.022-.028-.045.028.033-.079-.048-.006.017-.041-.035.034.052-.071-.009-.073-.054-.017.037-.026-.024.017.032-.089-.029.031.066-.052-.048.001.033-.054-.057c-.1.014-.358-.125-.335-.03l-.064-.061c.044.088-.155-.031-.171.005l.044.032c-.169-.054-.125.059-.218.068l.035.016.048.074-.082-.046.059.031c-.146-.039-.182.072-.289.104l-.236.276.078.06-.153.014c.02.097-.175.032-.07.184l-.053-.036.005.03-.015-.011-.029.059.059.042-.024.009-.029-.021.046.053-.084.001-.003.094-.114-.008-.078.132.067.047-.003.015-.029-.021-.048.018.021-.006.055.057-.015-.011.029.034-.135-.082.006.155-.1-.042.148.116-.021.006-.071-.051-.003.021-.026-.024-.066.078.053.024-.05.042-.046-.042.019.053-.063-.073.048.074-.065-.014.07.044-.08.032-.043-.032-.069.006zM77.405 36.824l.015-.001-.04-.034.025.035zM77.702 36.487l-.014-.015.014.015zM77.661 36.324l.045.029-.045-.029zM77.414 37.141l-.024-.02.024.02zM76.964 37.68l.01.004-.01-.004zM77.08 37.714l-.004-.012.004.012zM77.491 36.988l-.015-.019.015.019zM77.067 37.686l.013-.003-.012-.009zM76.95 37.684l.015-.004-.015.004zM77.34 37.404v-.002.002zM76.991 37.579l.003.001-.015-.015zM76.902 37.702l-.008-.012h-.01l.018.012zM77.164 37.458l.046.038-.046-.038z"/></g><path d="M84.125 46.625l-4.452-2.496"/><g fill="#587589"><path d="M80.085 44.804l-.017.028.017-.028zM80.333 45.184l-.012.012.012-.012zM79.918 44.608l.004-.006-.011-.014zM80.965 45.81l-.005-.001.005.001zM80.599 45.423l.017-.017-.017.017zM80.152 43.93l-.017.045.017-.045zM79.845 43.979l-.005.01.005-.01zM79.835 44.192l.016-.015-.016.015zM79.859 44.168l-.008.009.008-.009zM83.798 47.129l.048-.046-.048.046zM81.629 46.214l-.011.016.011-.016zM84.008 46.772v.011-.011zM80.328 43.882l.036-.021-.036.021zM82.634 44.758h.005-.005zM84.008 46.772v-.013l-.01.021.01-.008zM82.325 46.627l-.006.007zM82.326 46.714l-.016.009.016-.009zM83.847 47.083l.027-.026-.027.026zM82.762 46.881l-.006.003.006-.003zM80.584 45.384l.002-.011-.002.011zM81.47 44.457h.001v-.001zM81.427 44.499l.043-.042-.043.042zM81.491 44.495l.001-.006-.001.006zM81.236 44.247l-.002.004.002-.004zM81.3 44.273l-.006.021.006-.021zM81.703 44.463l-.001.002v-.001zM82.43 44.476c-.069-.007-.188.035-.23-.021l-.107.079.061-.113-.035.028.036-.063-.044.066.046-.114-.057-.032-.058.053.039-.06-.181.116.012-.013-.043.031.016.016-.083.115-.037.012.007-.116-.099.111.043-.105-.033.054.019-.055-.048.026.039-.049-.036-.011.023-.014-.034.015-.043.093-.028-.003.038-.048-.054.032.018-.029-.046-.024.011-.013-.05.055-.048.105-.071.027.032-.03.142-.203-.013-.014-.051.085-.011-.01-.072.125.019-.055-.061.05.015-.01.016-.108.032-.042-.009.016.034-.078-.042.02-.034.065.033-.115-.039.061-.009-.058.059-.139-.057.017.026.039-.044.066-.044-.017-.024.047-.086.05.049-.049-.018-.042.043-.043-.031.006.006-.011-.04.003c-.03-.018-.104.104-.163.17l.037-.075.017-.011.056-.138-.048.076-.019-.019-.054.094-.027-.015.044-.066-.034.015-.077.108.011-.051.02-.017-.032.018.009-.059.001-.042-.042.069-.019-.019.093-.166-.08.105.079-.156-.02-.057-.043.104-.151.133-.003.021-.067.068c.047-.076.101-.22.067-.216l-.067.142-.022.003.019-.028-.025-.028.05-.123-.022.052-.058.053-.009-.058-.069.116.037-.128-.023.006.045-.078-.105.104.047-.137-.099.11.056-.129-.027.035.01-.109-.062.083.019-.043-.044.066-.003-.009-.06.056.03-.052.04-.088-.129.216-.044.043.046-.09-.06.088.008-.065c.011-.001.113-.159.091-.169l.066-.066.028-.049-.058.053.056-.141-.022.064-.014.02-.023.055-.049.038-.113.159-.007-.02.073-.149-.046.09.02-.079.012-.013.007-.042-.048.087.001-.035.089-.133-.073.075-.008-.008-.055.106.009-.016-.047.052.017-.044-.028.033.031-.068-.053.058.025-.062-.014-.063-.045.067c.065-.145-.019-.081-.052-.077l-.08.117.069-.127-.02.005.086-.136-.092.068.028-.071.029-.021.006-.019-.115.145.044-.116-.028.009-.044.116c.046-.102-.024-.024-.051.011l-.02.141.064-.071-.031.064.039-.033-.07.14.069-.116-.022.064-.08.105c-.036.113.062-.036.103-.069l-.021.029.035-.027-.054.083.019.006-.004.009.009.009-.071.102.064-.071-.051.097.036-.001-.042.081.021-.041.026.039.1-.048-.069.128.061-.051-.084.139.032-.03-.009.016.035-.039-.038.098.042-.069-.016.045.041-.045-.009.016.017-.008-.032.068.029.003.024-.05-.026.085.03-.056.051.039-.042.057.094-.042-.056.153.049-.049.008.061.032-.021-.012.024.03-.056.031.068-.012.013.021-.017-.042.069.032.032.016-.046.037-.012-.023.076-.02.017.044-.055-.003.06-.008-.008.053-.07-.021.041.042.004-.039.072.057-.018-.018.031.029-.033-.025.074.019-.043.028.003-.03.044.041.04-.021.029.039.014-.027.048.026-.025-.036.062.06-.089-.031.068.021-.028-.031.142.042-.081c.126-.146.025.136.108.083l-.036.062.058-.064-.051.084.091-.095-.047.064.079.005.013-.023.047.021-.03.035.02.004-.034.057.021.045.047-.063.035.035-.026.023.049-.038-.024.038.065-.033v.074l.035-.051-.01.051-.006.006.014.001-.042.058.085-.112-.009.078-.012.013.027.1-.015.022.014.013-.03.044.066-.057-.018.031.074.025-.012.013.044.019-.009.012.017.008-.021.029.009.046.079-.094-.022.076.045-.004-.018.031.042-.019-.012.013.062-.024-.017.081.111-.049-.011.062.03-.056.043.166-.03.056.042-.057.09.115.083-.053-.006.007.1.025-.033.054.025.012.016-.046.003.053.047-.052-.01.024.019-.028-.034.077.085-.088-.028.059.037.05.007-.031.058-.053-.064.122.042-.081.048-.014-.018.02-.012.087.071-.09-.031.08.012.049.08-.043-.025.073.077-.108-.058.126.072-.113.098.247.124-.013-.012.013.012.049.008-.066.037-.024c.005.067.016.151.09.115l.031.045-.03.042.151-.108-.022.076.033-.053-.029.094.05-.061-.03.057c.014.013.073-.014.018.104.086-.062.134-.002.171.047l.063-.036-.025.073.069-.042-.011.016.056-.021-.035.112.018.031s.503.635.998.126l.101-.146.007.032.106-.214.018-.008.004-.033-.06.101.025-.08-.096.101.008-.003.034-.089.003.002.017-.058.04-.033-.029.032.04-.083-.016-.006.029-.044-.046.04.003-.071.045-.079-.036-.011.021-.029-.029.021.021-.091-.06.039.042-.057-.031.006.05-.061c-.021-.096.091-.366.002-.331l.053-.07c-.08.055.018-.155-.018-.166l-.027.047c.038-.172-.065-.114-.081-.204l-.013.036-.066.057.037-.086-.025.062c.026-.147-.083-.168-.12-.268l-.279-.193-.051.084-.024-.147c-.091.033-.043-.167-.18-.043l.03-.057-.028.009.009-.015-.058-.021-.036.062-.01-.022.018-.031-.047.052-.008-.082-.089.009-.001-.112-.132-.058-.039.072-.014-.001.018-.031-.021-.045.008.02-.05.061.009-.016-.029.033.067-.142-.146.026.032-.103-.098.16-.007-.02.042-.076h-.02l.021-.028-.079-.054-.019.055-.043-.043.036-.051-.048.026.064-.072-.066.057.008-.065-.037.074-.036-.073.027-.047-.015-.061zM81.234 44.232l.002.014.03-.043-.032.029zM81.576 44.477l.012-.016-.012.016zM81.727 44.415l-.024.048.024-.048zM80.934 44.285l.018-.027-.018.027zM80.39 43.919l-.003.011.003-.011zM80.366 44.036l.012-.005-.012.005zM81.085 44.339l.018-.017-.018.017zM80.392 44.021l.004.011.007-.012zM80.384 43.905l.006.014-.006-.014zM80.679 44.249l.002-.001-.002.001zM80.487 43.931v.004l.012-.017zM80.364 43.861l.011-.009v-.01l-.011.019zM80.615 44.083l-.032.05.032-.05z"/></g><g fill="#587589"><path d="M77.888 47.781l-.027.02.027-.02zM77.907 48.155l-.015.007.015-.007zM77.846 47.58l.007-.004-.003-.014zM78.118 48.824l-.003-.003.003.003zM78.007 48.417l.021-.01-.021.01zM78.349 47.075l-.035.033.035-.033zM78.082 47.042l-.008.007.008-.007zM77.974 47.216l.02-.008-.02.008zM78.005 47.202l-.011.005.011-.005zM79.755 50.589l.06-.027-.06.027zM78.457 49.316l-.016.011.016-.011zM80.088 50.344l-.005.009.005-.009zM78.511 47.077l.039-.009-.039.009zM79.936 48.351l.004.001-.004-.001zM80.088 50.344l.006-.01-.018.015.012-.005zM78.817 49.823l-.007.004zM78.777 49.896l-.017.003.017-.003zM79.815 50.562l.034-.015-.034.015zM79.047 50.137l-.007.001.007-.001zM78.014 48.38l.006-.008-.006.008zM79.151 47.824h.001zM79.098 47.849l.054-.024-.054.024zM79.149 47.861l.004-.004-.004.004zM79.063 47.595l-.003.003.003-.003zM79.102 47.632l-.015.015.015-.015zM79.333 47.885l-.001.001zM79.906 48.069c-.052-.023-.166-.017-.174-.072l-.122.04.101-.079-.041.014.058-.043-.066.044.09-.083-.03-.041-.071.03.059-.041-.198.053.015-.008-.048.015.005.017-.12.075-.035.001.06-.094-.131.067.083-.076-.051.037.041-.041-.05.01.053-.031-.023-.018.025-.006-.035.004-.077.066-.021-.009.053-.03-.058.013.027-.02-.025-.031.015-.008-.066.034-.087.076-.069.006.039-.017.208-.134-.004-.015-.08.058-.004-.011-.115.086.041-.041-.072.027.016-.005.063-.085.045-.026-.014.011.063-.056-.043.006-.057.046.08-.087-.059.041.02-.05.111-.101-.053.001.002.038-.066.044-.027-.024-.042.033-.091.021.062-.029.005-.039.055-.025-.027-.003.01-.008-.033-.007-.209.102.064-.053.019-.004.109-.102-.073.051-.006-.02-.087.064-.015-.019.066-.044-.034.004-.111.071.032-.04.023-.009-.033.008.034-.047.021-.035-.066.047-.006-.02.152-.115-.112.068.135-.11.011-.052-.083.076-.182.075-.013.016-.085.041c.073-.051.183-.158.155-.163l-.12.102-.019-.003.028-.019-.007-.029.097-.09-.042.038-.071.03.021-.05-.109.08.089-.097h-.021l.073-.054-.132.062.102-.103-.131.068.105-.094-.038.023.059-.088-.088.054.035-.031-.067.044.002-.008-.074.032.048-.036.073-.063-.204.148-.055.025.078-.063-.088.059.037-.053.151-.118.084-.04.045-.034-.071.03.11-.103-.047.047-.021.013-.043.04-.057.02-.164.105.003-.019.128-.106-.079.064.052-.06.016-.008.025-.033-.079.061.018-.029.133-.089-.093.045-.002-.009-.093.075.015-.011-.064.036.034-.032-.038.021.056-.049-.069.036.048-.045.019-.056-.067.044c.119-.104.022-.071-.006-.076l-.118.078.115-.089h-.018l.132-.091-.104.034.055-.052.032-.01.014-.014-.159.092.089-.086h-.027l-.089.086-.046-.003-.082.112.084-.044-.055.046.046-.018-.121.099.109-.08-.047.048-.113.068.114-.033-.03.019.041-.015-.081.056.012.01-.008.006.003.009-.104.067.085-.044-.086.068.029.008-.072.057.036-.028.003.038.102-.016-.115.089.072-.027-.131.095.039-.017-.015.011.046-.024-.076.072.065-.047-.034.034.054-.028-.014.011.017-.002-.058.049.022.01.042-.036-.06.064.05-.039.023.044-.06.038.094-.012-.116.113.062-.029-.022.052.035-.009-.021.018.05-.04-.007.063-.015.008.024-.009-.066.047.011.034.034-.034.035-.001-.053.058-.024.009.061-.035-.03.048-.003-.008.075-.045-.036.028.031.014-.064.05.053-.001-.029.021.039-.02-.055.055.039-.033.021.009-.044.029.014.043-.03.019.024.021-.044.034.032-.014-.058.043.088-.059-.056.049.029-.018-.09.109.072-.057c.168-.091-.044.118.047.094l-.058.043.077-.04-.08.058.116-.057-.067.042.061.023.021-.016.027.029-.04.022.014.008-.052.034-.005.042.067-.042.012.037-.032.013.056-.02-.036.025.067-.012-.035.061.052-.034-.032.04-.008.004.011.004-.06.038.121-.072-.043.062-.015.008-.026.09-.022.015.005.014-.044.03.079-.031-.029.021.047.039-.015.008.026.026-.013.008.01.01-.03.019-.014.041.106-.058-.053.057.038.007-.029.021.043-.005-.016.008.061-.005-.052.063.111-.015-.038.05.05-.039-.043.147-.05.04.06-.038.018.117.091-.024-.008.004.067.044-.051.037.014.016.034-.034-.022.044.062-.032-.02.018.028-.019-.062.056.108-.053-.049.042.006.05.02-.023.071-.03-.107.085.072-.057h.044l-.023.012-.05.069.099-.058-.062.059-.014.043.084-.017-.054.054.111-.071-.105.091.11-.077-.037.228.104.019-.015.008-.013.043.037-.053.042-.011c-.027.057-.058.129.018.116l.003.044-.043.028.171-.054-.054.057.051-.036-.067.071.068-.039-.05.039c.005.014.064.006-.034.091.098-.031.108.03.114.08l.066-.015-.054.055.074-.019-.016.011.054-.004-.081.084v.03s.103.645.734.342l.148-.097-.009.028.185-.152.018-.002.018-.026-.094.069.057-.06-.124.061.008-.001.069-.065.001.003.041-.044.047-.018-.039.02.071-.06-.011-.007.044-.03-.056.022.036-.058.072-.054-.025-.015.03-.019-.033.01.059-.07-.066.018.06-.038-.027-.002.068-.039c.028-.083.243-.281.157-.273l.075-.045.063-.142-.043.033c.11-.133.001-.11.031-.188l-.027.027-.079.031.069-.062-.048.045c.089-.116.013-.159.029-.25l-.132-.226-.08.058.049-.128c-.087.005.043-.148-.123-.079l.051-.04h-.027l.015-.011-.037-.031-.058.043.002-.021.029-.021-.062.032.032-.069-.075-.014.051-.093-.078-.079-.065.05-.01-.005.029-.021.005-.042-.003.018-.068.039.015-.011-.039.02.12-.102-.129-.013.074-.078-.153.109.003-.018.069-.053-.016-.005.03-.019-.038-.063-.041.041-.014-.045.052-.034-.05.009.084-.043-.08.031.037-.052-.063.053.005-.069.043-.032.02-.053zM79.068 47.583l-.005.012.044-.03zM79.226 47.866l.017-.01-.017.01zM79.375 47.851l-.042.034.042-.034zM78.805 47.554l.026-.018-.026.018zM78.543 47.122l-.008.008.008-.008zM78.469 47.213l.012-.002-.012.002zM78.9 47.635l.021-.01-.021.01zM78.498 47.207l-.002.01.011-.009zM78.545 47.109l-.002.013.002-.013zM78.62 47.463h.002-.002zM78.615 47.155l-.002.003.017-.011zM78.549 47.068l.013-.005.004-.008-.017.013zM78.646 47.312l-.049.034.049-.034z"/></g><g fill="#587589"><path d="M19.997 91.762l.031.224c.023-.013.023-.073-.031-.224zM24.899 85.447l-.026-.046.026.046zM21.495 100.372l-.005-.011-.035-.047zM17.304 90.008c1.073 2.731 1.125 3.554 2.406 6.312.542 1.346 1.201 2.747 1.781 4.041.456.538.725 1.714 1.197 2.379l.009.331c.162.229.325.511.372.789l-.039-.002c.243.343.372.789.493.959l-.039-.001.207.452-.079-.06c.366.621.657 1.298.869 1.913l.113-.106c.194.671.41 1.095.616 1.504l.164.335c.098.166.121.386.301.508l.392.379.324.342-.037.016c.778.387 1.277.817 1.874 1.224.293.203.625.392 1.029.534.398.136.921.235 1.558.064-.31.073.144.065.134.088.647-.127 1.232-.611 1.448-1.022.219-.402.241-.686.107-.742.248-.636.236-.488.383-.549-.111-.033-.046-.585-.027-1.049l.03.221.02-.671-.026-.653-.231.258c.053-.678.296-.186.195-.83l-.194.021c-.031-.949.187-1.443.17-2.465.005-.159-.142-.396-.16-.476l-.125-.3-.259-.602-.269-.601-.095-.178.036-.097.069-.164.311-.672.619-1.342.329-.7.513-1.046 1.029-2.035-1.904-.034-.947-.036-.479-.023-.233-.013-.145-.015-.148-.146c-.064-.215-.928.317-1.056.118l-.164.099c-.034-.038-.083-.079-.007-.128-.082-.007-.105.018-.198.064l-.029-.004.08-.217-.012-.132-.13-.469c-.097-.324-.204-.64-.312-.957-.218-.634-.445-1.276-.616-2.008-.209-1.813-1.337-5.027-1.989-6.878-1.028-2.572-1.04-5.884-2.128-8.507.005-.097-.123-.308-.146-.3l-.644-2.495s-3.185-12.087-2.42-2.457l-.061-.049c.258 1.392.466 2.255.948 3.133-.238.224.273 1.126.27 1.47l-.031-.024c.438.773.285 1.76.693 2.509-.03-.025-.111-.022-.166-.205.193.574.47 1.355.32 1.442.419 1.383.871 3.348 1.371 4.171l-.061-.05c.312.463.204.652.446 1.197l-.023.075c.322.508.465 1.611.659 2.039l-.1.058.324 1.098-.088-.419c.334.063.041.886.449 1.634.165.76 1.025 1.354 1.091 2.171.239.333-.313-.267-.057.26l-.251-.057c.22.524.084.936.37 1.579l-.113.06c.457.817.29 1.696.657 2.223.065.157.123.389.15.559.027.169.031.303.032.432.001.254-.005.497.138.922.159-.009.362-.029.605-.064l.566.168c.738.027.509-.206.991-.125-.028.106.584.085.314.186.208.035.466.045.641.041l.161-.04c.122-.037.336-.083.423-.043l-.201.201c.252-.041-.001.186.13.269-.065.028-.062.015-.23.307-.126.211-.219.325-.128-.066.016-.067.073-.171.1-.147l-.079-.113c-.538.544-.531 1.315-.911 1.98.141-.187.271-.465.253-.244l-.344.636-.023-.181-.272.466-.465.842.253-.214-.282.434c.072.273.123.514.217.784.12.329.179.445.339.636.199.207-.039-.526.217-.031l.361 1.213v.116l.021.33.054.664c.133-.098.155.132.212.364l-.121.041c.258.878-.232.354-.046 1.206l-.088-.071.264.218c.236.772-.237.412.007 1.227.013-.318.307-.099.17.269l-.095-.116c-.027.192.021.294-.053.391-.021-.119-.15-.103-.212.129l-.084-.205c.009.007.038.468.022.435l-.271.119c-.098.027-.269.013-.319-.082l-.4-.126c-.231-.08-.514-.193-.662-.17l-.026-.352c-.287 0-1.031-.387-1.203-.711l.059.026c-.219-.217-.433-.404-.639-.577l-.063-.035-.031-.034-.097-.186c-.256-.494-.502-.974-.656-1.561-.112.107-.285-.508-.395-.292-.65-1.073-.532-2.232-1.232-2.424-.248-.509-.136-.669-.223-.949l.08.112c-.454-.957-.578-1.238-.871-1.968-.204-.341-.472-.294-.686-.968.186.169.056-.088-.046-.331.081.149.136.182.067-.164l-.139-.151.02-.02c-.205-.391-.205-.307-.139-.113l-.034.09c-.051-.473-.501-1.167-.356-1.288-.551-1.201-1.089-1.997-1.58-2.982.038-.15.213.055.371.334l-.334-.705c.126-.046.245.383.363.594l-1.181-2.76-.185-.166-.009-.067c-.05.025-.215-.17-.294-.312.048-.188.252-.095.037-.588-.062-.437-.521-1.094-.796-1.584.099.285.001.221-.087.117-.108-.246-.061-.435-.188-.606l.135-.086c-.096.156-.42-.586-.519-.652.048-.187.255.346.362.374l-.649-1.485c-.333-.484-.097.155-.331-.046-.226-.457-.52-.872-.659-1.446l-.057.225c-.471-.839-.678-1.372-.797-2.021-3.812-6.12-2.016-.778-2.016-.778.799 2.696 1.736 3.872 3.131 6.905z"/></g></svg>