<svg version="1.2" baseProfile="tiny" xmlns="http://www.w3.org/2000/svg" width="24" height="24"><path d="M12 1c-6.065 0-11 4.935-11 11s4.935 11 11 11 11-4.935 11-11-4.935-11-11-11zm0 2c4.963 0 9 4.038 9 9l-.025.499c-1.239-.005-1.876-.372-2.549-.817-.807-2.689-1.594-5.182-3.427-5.182s-2.62 2.493-3.428 5.183c-.678.448-1.317.817-2.574.817-1.255 0-1.895-.369-2.572-.817-.557-1.857-1.106-3.619-1.995-4.533 1.603-2.491 4.394-4.15 7.57-4.15zm8.091 12.916c-.177-.233-.343-.525-.499-.859.225.15.465.277.734.351l-.235.508zm-16.182-7.832c.176.233.341.525.498.858-.225-.15-.464-.276-.733-.35l.235-.508zm.862 2.698c-.448-.157-.978-.263-1.637-.276.055-.325.125-.645.213-.957.579.138 1.027.607 1.424 1.233zm4.226 4.718c.552 0 1.008-.175 1.409-.443-.401.854-.859 1.443-1.409 1.443s-1.007-.589-1.407-1.442c.4.267.856.442 1.407.442zm-1.771-2.282c.479.168 1.046.282 1.771.282.726 0 1.293-.114 1.773-.282-.475.747-1.017 1.282-1.773 1.282-.755 0-1.297-.534-1.771-1.282zm7.773-3.718c.756 0 1.299.535 1.773 1.282-.479-.167-1.048-.282-1.773-.282s-1.294.115-1.773.282c.474-.747 1.016-1.282 1.773-1.282zm-1.409-.557c.4-.854.858-1.443 1.409-1.443s1.009.589 1.409 1.443c-.4-.269-.857-.443-1.409-.443s-1.009.175-1.409.443zm5.638 4.275c.448.156.979.263 1.638.276-.055.325-.125.645-.213.957-.58-.138-1.028-.607-1.425-1.233zm-7.228 7.782c-4.962 0-9-4.037-9-9l.025-.499c1.238.005 1.874.372 2.546.816.808 2.69 1.595 5.183 3.426 5.183 1.833 0 2.62-2.493 3.428-5.183.678-.448 1.316-.817 2.574-.817s1.896.37 2.574.817c.558 1.857 1.106 3.619 1.996 4.532-1.601 2.493-4.392 4.151-7.569 4.151z"/></svg>