<svg version="1.2" baseProfile="tiny" xmlns="http://www.w3.org/2000/svg" width="24" height="24"><path d="M12 22.925c-6.024 0-10.925-4.9-10.925-10.925 0-6.024 4.901-10.925 10.925-10.925 6.024 0 10.925 4.901 10.925 10.925 0 6.024-4.901 10.925-10.925 10.925zm-8.166-10.925c0 4.503 3.664 8.166 8.166 8.166 2.679 0 5.157-1.304 6.691-3.503-.786-.989-1.29-2.613-1.733-4.089-.576-.371-1.103-.626-2.096-.626s-1.52.255-2.095.626c-.761 2.534-1.571 5.101-3.634 5.101-2.061 0-2.871-2.567-3.632-5.101-.486-.313-.937-.544-1.667-.608v.034zm5.022 3.752c.119.095.213.119.278.119s.159-.024.278-.119l-.278.014-.278-.014zm-.205-1.913c.156.083.315.123.482.123s.326-.04.482-.123l-.482.018-.482-.018zm-1.61-2.413c.575.371 1.1.626 2.093.626.994 0 1.52-.255 2.095-.626.762-2.534 1.572-5.101 3.634-5.101s2.873 2.567 3.634 5.101c.487.314.938.544 1.67.608v-.034c0-4.502-3.663-8.166-8.166-8.166-2.678 0-5.156 1.304-6.691 3.502.784.991 1.288 2.614 1.731 4.09zm7.821-1.282l.482.018c-.156-.083-.315-.123-.482-.123s-.326.04-.481.123l.481-.018zm0-1.91l.278.013c-.12-.094-.214-.118-.278-.118s-.159.024-.278.118l.278-.013z"/><path fill="#fff" d="M12 1.5c5.79 0 10.5 4.71 10.5 10.5s-4.71 10.5-10.5 10.5-10.5-4.71-10.5-10.5 4.71-10.5 10.5-10.5m-2.866 10.977c1.2 0 1.81-.352 2.457-.78.771-2.567 1.522-4.947 3.271-4.947 1.75 0 2.501 2.38 3.271 4.947.643.424 1.25.774 2.433.78l.024-.477c0-4.737-3.854-8.591-8.591-8.591-3.032 0-5.696 1.583-7.226 3.961.849.872 1.372 2.554 1.904 4.327.648.428 1.258.78 2.457.78m4.384-3.394c.382-.256.818-.423 1.345-.423s.963.167 1.346.423c-.383-.815-.819-1.378-1.346-1.378-.526 0-.964.562-1.345 1.378m-8.766-.001c-.15-.318-.307-.597-.476-.819l-.224.485c.258.07.486.19.7.334m8.418 1.755c.458-.16 1-.269 1.692-.269.693 0 1.235.109 1.693.269-.453-.713-.972-1.224-1.693-1.224s-1.239.511-1.692 1.224m-8.07 0c-.379-.597-.807-1.045-1.359-1.177-.084.298-.151.603-.204.914.63.013 1.136.114 1.563.263m4.034 6.413c-1.749 0-2.5-2.38-3.27-4.947-.642-.424-1.249-.774-2.431-.779l-.024.476c0 4.737 3.854 8.591 8.591 8.591 3.032 0 5.696-1.583 7.226-3.962-.85-.871-1.373-2.553-1.905-4.326-.647-.427-1.257-.78-2.458-.78-1.2 0-1.81.352-2.457.78-.771 2.567-1.523 4.947-3.272 4.947m11.125-2.91c.084-.299.151-.604.203-.914-.629-.013-1.135-.114-1.562-.264.378.598.806 1.046 1.359 1.178m-9.433-1.178c-.458.16-1 .27-1.692.27s-1.233-.109-1.691-.27c.453.715.97 1.225 1.691 1.225.721 0 1.239-.511 1.692-1.225m8.897 2.576l.225-.486c-.257-.069-.486-.19-.7-.334.148.318.307.598.475.82m-9.245-.82c-.382.256-.818.423-1.344.423-.526 0-.961-.167-1.343-.422.382.814.818 1.377 1.343 1.377s.962-.563 1.344-1.378m1.522-14.268c-6.258 0-11.35 5.092-11.35 11.35 0 6.259 5.092 11.35 11.35 11.35 6.259 0 11.35-5.091 11.35-11.35 0-6.258-5.091-11.35-11.35-11.35zm-6.163 6.683c1.465-1.936 3.726-3.074 6.163-3.074 4.111 0 7.485 3.222 7.727 7.274-.33-.082-.595-.214-.869-.382-.761-2.524-1.67-5.251-3.996-5.251-2.325 0-3.234 2.729-3.995 5.252-.484.299-.919.475-1.733.475-.813 0-1.248-.176-1.731-.475-.491-1.616-.927-2.899-1.566-3.819zm7.292 5.515c.484-.299.92-.475 1.733-.475s1.249.176 1.734.476c.49 1.616.927 2.898 1.566 3.819-1.465 1.935-3.727 3.073-6.163 3.073-4.111 0-7.484-3.223-7.727-7.274.33.082.594.213.867.381.762 2.524 1.67 5.252 3.995 5.252 2.326 0 3.234-2.728 3.995-5.252z"/></svg>